<svg width="38" height="25" viewBox="0 0 38 25" fill="none" xmlns="http://www.w3.org/2000/svg">
<g clip-path="url(#clip0_278_2174)">
<g clip-path="url(#clip1_278_2174)">
<g clip-path="url(#clip2_278_2174)">
<mask id="mask0_278_2174" style="mask-type:luminance" maskUnits="userSpaceOnUse" x="0" y="0" width="38" height="25">
<path d="M38 0.19043H0V24.1904H38V0.19043Z" fill="white"/>
</mask>
<g mask="url(#mask0_278_2174)">
<path d="M35 0.19043H3C1.3 0.19043 0 1.49043 0 3.19043V21.1904C0 22.8904 1.4 24.1904 3 24.1904H35C36.7 24.1904 38 22.8904 38 21.1904V3.19043C38 1.49043 36.6 0.19043 35 0.19043Z" fill="#F9F7E9"/>
<path d="M35 1.19043C36.1 1.19043 37 2.09043 37 3.19043V21.1904C37 22.2904 36.1 23.1904 35 23.1904H3C1.9 23.1904 1 22.2904 1 21.1904V3.19043C1 2.09043 1.9 1.19043 3 1.19043H35Z" fill="white"/>
<path fill-rule="evenodd" clip-rule="evenodd" d="M5.968 17.1284C5.598 17.1284 5.408 16.9454 5.408 16.6444C5.408 16.0844 6.033 15.8964 7.172 15.7754C7.172 16.5214 6.667 17.1274 5.965 17.1274L5.968 17.1284ZM6.458 12.9314C5.644 12.9314 4.708 13.3144 4.2 13.7194L4.664 14.6994C5.072 14.3264 5.73 14.0074 6.324 14.0074C6.89 14.0074 7.202 14.1964 7.202 14.5774C7.202 14.8324 6.995 14.9624 6.605 15.0134C5.145 15.2024 4 15.6054 4 16.7304C4 17.6224 4.635 18.1614 5.627 18.1614C6.335 18.1614 6.965 17.7684 7.265 17.2514V18.0214H8.585V14.7954C8.585 13.4654 7.662 12.9284 6.459 12.9284L6.458 12.9314ZM19.708 13.0764V18.0164H21.121V15.6364C21.121 14.5054 21.805 14.1724 22.282 14.1724C22.497 14.1704 22.707 14.2324 22.886 14.3514L23.145 13.0454C22.9448 12.9653 22.7305 12.9266 22.515 12.9314C21.789 12.9314 21.332 13.2524 21.031 13.9064V13.0764H19.708ZM29.69 12.9304C28.944 12.9304 28.385 13.3724 28.095 13.7974C27.825 13.2474 27.255 12.9314 26.569 12.9314C25.823 12.9314 25.305 13.3454 25.067 13.8234V13.0764H23.704V18.0154H25.118V15.4724C25.118 14.5624 25.596 14.1224 26.042 14.1224C26.446 14.1224 26.817 14.3824 26.817 15.0564V18.0154H28.228V15.4724C28.228 14.5484 28.695 14.1224 29.161 14.1224C29.535 14.1224 29.931 14.3924 29.931 15.0474V18.0154H31.343V14.6004C31.343 13.4904 30.596 12.9304 29.693 12.9304M16.27 13.0764H14.991V12.5744C14.991 11.9204 15.364 11.7344 15.685 11.7344C15.905 11.7374 16.12 11.7914 16.315 11.8914L16.751 10.8954C16.751 10.8954 16.309 10.6074 15.506 10.6074C14.604 10.6074 13.577 11.1164 13.577 12.7134V13.0764H11.439V12.5744C11.439 11.9204 11.811 11.7344 12.133 11.7344C12.353 11.7344 12.569 11.7884 12.763 11.8914L13.198 10.8954C12.938 10.7434 12.521 10.6074 11.954 10.6074C11.052 10.6074 10.025 11.1164 10.025 12.7134V13.0764H9.208V14.1654H10.028V18.0154H11.438V14.1654H13.58V18.0154H14.991V14.1654H16.271V13.0754L16.27 13.0764Z" fill="#101820"/>
<path d="M18.5233 13.0767H17.1133V18.0137H18.5233V13.0767Z" fill="#101820"/>
<path fill-rule="evenodd" clip-rule="evenodd" d="M17.1641 12.2364H18.5451C19.3511 9.70343 22.0851 7.47643 25.3351 7.47643C29.2891 7.47643 32.7051 10.4864 32.7051 15.1724C32.7171 16.1344 32.5851 17.0924 32.3131 18.0154H33.6531L33.6671 17.9694C33.8931 17.0554 34.0041 16.1174 33.9991 15.1764C33.9991 9.95143 30.1911 6.19043 25.3381 6.19043C21.5261 6.19043 18.1281 8.83643 17.1651 12.2384L17.1641 12.2364Z" fill="#4A4AF4"/>
</g>
</g>
</g>
</g>
<defs>
<clipPath id="clip0_278_2174">
<rect width="38" height="24" fill="white" transform="translate(0 0.19043)"/>
</clipPath>
<clipPath id="clip1_278_2174">
<rect width="38" height="24" fill="white" transform="translate(0 0.19043)"/>
</clipPath>
<clipPath id="clip2_278_2174">
<rect width="38" height="24" fill="white" transform="translate(0 0.19043)"/>
</clipPath>
</defs>
</svg>
