<svg width="38" height="25" viewBox="0 0 38 25" fill="none" xmlns="http://www.w3.org/2000/svg">
<g clip-path="url(#clip0_278_2220)">
<g clip-path="url(#clip1_278_2220)">
<g clip-path="url(#clip2_278_2220)">
<mask id="mask0_278_2220" style="mask-type:luminance" maskUnits="userSpaceOnUse" x="0" y="0" width="38" height="25">
<path d="M38 0.19043H0V24.1904H38V0.19043Z" fill="white"/>
</mask>
<g mask="url(#mask0_278_2220)">
<path d="M35 0.19043H3C1.3 0.19043 0 1.49043 0 3.19043V21.1904C0 22.8904 1.4 24.1904 3 24.1904H35C36.7 24.1904 38 22.8904 38 21.1904V3.19043C38 1.49043 36.6 0.19043 35 0.19043Z" fill="#F9F7E9"/>
<path d="M35 1.19043C36.1 1.19043 37 2.09043 37 3.19043V21.1904C37 22.2904 36.1 23.1904 35 23.1904H3C1.9 23.1904 1 22.2904 1 21.1904V3.19043C1 2.09043 1.9 1.19043 3 1.19043H35Z" fill="#006FCF"/>
<path d="M8.971 10.4584L9.745 12.3344H8.203L8.971 10.4584ZM25.046 10.5364H22.069V11.3634H24.998V12.6024H22.075V13.5244H25.052V14.2634L27.129 12.0184L25.052 9.67843L25.046 10.5364ZM10.983 8.19643H14.978L15.865 10.1314L16.687 8.19043H27.057L28.135 9.38043L29.25 8.19043H34.013L30.494 12.0424L33.977 15.8704H29.143L28.065 14.6804L26.94 15.8704H10.03L9.536 14.6804H8.406L7.911 15.8704H4L7.286 8.19043H10.716L10.983 8.19643ZM19.646 9.27443H17.407L15.907 12.8104L14.282 9.27443H12.06V14.0844L10 9.27443H8.007L5.625 14.7864H7.18L7.674 13.5964H10.27L10.764 14.7864H13.484V10.8514L15.235 14.7924H16.425L18.165 10.8634V14.7934H19.623L19.647 9.27343L19.646 9.27443ZM28.986 12.0424L31.517 9.27443H29.695L28.094 11.0004L26.546 9.27443H20.652V14.7924H26.462L28.076 13.0544L29.624 14.7924H31.499L28.986 12.0424Z" fill="white"/>
</g>
</g>
</g>
</g>
<defs>
<clipPath id="clip0_278_2220">
<rect width="38" height="24" fill="white" transform="translate(0 0.19043)"/>
</clipPath>
<clipPath id="clip1_278_2220">
<rect width="38" height="24" fill="white" transform="translate(0 0.19043)"/>
</clipPath>
<clipPath id="clip2_278_2220">
<rect width="38" height="24" fill="white" transform="translate(0 0.19043)"/>
</clipPath>
</defs>
</svg>
