<svg width="38" height="25" viewBox="0 0 38 25" fill="none" xmlns="http://www.w3.org/2000/svg">
<g clip-path="url(#clip0_278_2253)">
<g clip-path="url(#clip1_278_2253)">
<g clip-path="url(#clip2_278_2253)">
<mask id="mask0_278_2253" style="mask-type:luminance" maskUnits="userSpaceOnUse" x="0" y="0" width="38" height="25">
<path d="M38 0.19043H0V24.1904H38V0.19043Z" fill="white"/>
</mask>
<g mask="url(#mask0_278_2253)">
<path d="M35 0.19043H3C1.3 0.19043 0 1.49043 0 3.19043V21.1904C0 22.8904 1.4 24.1904 3 24.1904H35C36.7 24.1904 38 22.8904 38 21.1904V3.19043C38 1.49043 36.6 0.19043 35 0.19043Z" fill="#F9F7E9"/>
<path d="M35 1.19043C36.1 1.19043 37 2.09043 37 3.19043V21.1904C37 22.2904 36.1 23.1904 35 23.1904H3C1.9 23.1904 1 22.2904 1 21.1904V3.19043C1 2.09043 1.9 1.19043 3 1.19043H35Z" fill="white"/>
<path d="M20.5607 14.9654C23.5062 14.9797 26.1947 12.5639 26.1947 9.62467C26.1947 6.41096 23.5062 4.18957 20.5607 4.19043H18.0257C15.0452 4.18957 12.5918 6.41139 12.5918 9.62467C12.5918 12.5645 15.0452 14.9797 18.0257 14.9654H20.5607Z" fill="#0064A7"/>
<path d="M19.1576 12.4869V6.65097C20.3307 7.10084 21.1636 8.23664 21.1656 9.56885C21.1635 10.901 20.3307 12.0361 19.1576 12.4869ZM14.9129 9.56878C14.9155 8.2375 15.7471 7.10238 16.9195 6.65104V12.4859C15.7472 12.0348 14.9155 10.9003 14.9129 9.56878ZM18.0388 4.63623C15.3152 4.63709 13.1079 6.84454 13.1074 9.56878C13.108 12.2927 15.3152 14.4996 18.0388 14.5005C20.7633 14.4996 22.9708 12.2927 22.9711 9.56878C22.9708 6.84454 20.7633 4.63709 18.0388 4.63623Z" fill="white"/>
<path d="M7.08183 18.6429C7.08183 19.0815 7.39549 19.1327 7.67443 19.1327C8.90529 19.1327 9.30926 18.2042 9.30926 17.3554C9.30926 16.2902 8.62567 15.5215 7.52645 15.5215C7.29242 15.5215 7.18484 15.5381 7.08183 15.5441V18.6429ZM6.52346 15.9709C6.52346 15.4585 6.25611 15.4922 6 15.4869V15.3389C6.22206 15.3497 6.44974 15.3497 6.67218 15.3497C6.91133 15.3497 7.23598 15.3389 7.65784 15.3389C9.13303 15.3389 9.93622 16.3238 9.93622 17.3327C9.93622 17.8968 9.6059 19.3152 7.58925 19.3152C7.2989 19.3152 7.03087 19.3038 6.76316 19.3038C6.50711 19.3038 6.25605 19.3093 6 19.3152V19.1671C6.34142 19.1328 6.50711 19.1214 6.52346 18.734V15.9709Z" fill="#1D1D1B"/>
<path d="M10.7463 15.8342C10.5979 15.8342 10.4671 15.6974 10.4671 15.5492C10.4671 15.4066 10.6041 15.2754 10.7463 15.2754C10.894 15.2754 11.0253 15.3953 11.0253 15.5492C11.0254 15.7033 10.8998 15.8342 10.7463 15.8342ZM10.1367 19.1666H10.2449C10.4041 19.1666 10.5181 19.1666 10.5181 18.9782V17.4347C10.5181 17.1843 10.4328 17.1495 10.2219 17.0362V16.945C10.4896 16.8648 10.8089 16.757 10.8314 16.7399C10.8715 16.7172 10.9054 16.7111 10.9341 16.7111C10.9623 16.7111 10.974 16.7454 10.974 16.7913V18.9782C10.974 19.1666 11.0993 19.1666 11.259 19.1666H11.3556V19.3147C11.1617 19.3147 10.9622 19.3033 10.7577 19.3033C10.5524 19.3033 10.3474 19.3089 10.1367 19.3147V19.1666Z" fill="#1D1D1B"/>
<path d="M11.8955 17.469C11.8955 17.2585 11.8326 17.2017 11.5653 17.0934V16.9852C11.81 16.9054 12.0432 16.8312 12.3169 16.7114C12.3341 16.7114 12.3507 16.7232 12.3507 16.7682V17.1387C12.6759 16.9054 12.955 16.7114 13.3372 16.7114C13.821 16.7114 13.9919 17.0648 13.9919 17.5091V18.9785C13.9919 19.1669 14.1172 19.1669 14.2767 19.1669H14.3795V19.315C14.1795 19.315 13.9803 19.3036 13.7756 19.3036C13.5702 19.3036 13.3652 19.3092 13.16 19.315V19.1669H13.2627C13.4224 19.1669 13.5357 19.1669 13.5357 18.9785V17.5036C13.5357 17.1786 13.3373 17.0192 13.0122 17.0192C12.8299 17.0192 12.5394 17.1672 12.3508 17.2928V18.9785C12.3508 19.1669 12.4767 19.1669 12.6363 19.1669H12.7387V19.315C12.5393 19.315 12.3397 19.3036 12.1345 19.3036C11.9299 19.3036 11.7244 19.3092 11.5195 19.315V19.1669H11.6222C11.7817 19.1669 11.8955 19.1669 11.8955 18.9785V17.469Z" fill="#1D1D1B"/>
<path d="M15.8218 17.5603C15.964 17.5603 15.9806 17.4862 15.9806 17.418C15.9806 17.1275 15.8042 16.8938 15.485 16.8938C15.1377 16.8938 14.8985 17.1498 14.8301 17.5603H15.8218ZM14.8134 17.7429C14.8016 17.7942 14.8016 17.8794 14.8134 18.0734C14.8469 18.6144 15.1951 19.0587 15.6502 19.0587C15.964 19.0587 16.2092 18.8876 16.4197 18.677L16.4992 18.7568C16.237 19.1043 15.9125 19.4006 15.4457 19.4006C14.5396 19.4006 14.3574 18.5231 14.3574 18.1587C14.3574 17.0418 15.1092 16.7114 15.5077 16.7114C15.9695 16.7114 16.4655 17.0019 16.4707 17.6058C16.4707 17.6403 16.4707 17.6741 16.4656 17.7087L16.4138 17.7429H14.8134Z" fill="#1D1D1B"/>
<path d="M16.6016 19.1664H16.7555C16.9146 19.1664 17.0286 19.1664 17.0286 18.978V17.3777C17.0286 17.2013 16.8179 17.1667 16.7323 17.1213V17.036C17.1482 16.8593 17.3761 16.7109 17.4281 16.7109C17.4615 16.7109 17.4787 16.728 17.4787 16.7853V17.2979H17.4908C17.6327 17.0758 17.8722 16.7109 18.2195 16.7109C18.3621 16.7109 18.5442 16.8076 18.5442 17.0128C18.5442 17.1667 18.4361 17.3039 18.2766 17.3039C18.0993 17.3039 18.0993 17.1667 17.9002 17.1667C17.8032 17.1667 17.4843 17.2979 17.4843 17.6398V18.978C17.4843 19.1664 17.5981 19.1664 17.7578 19.1664H18.0766V19.3145C17.7632 19.3087 17.5249 19.3031 17.2794 19.3031C17.046 19.3031 16.8067 19.3087 16.6016 19.3145V19.1664Z" fill="#1D1D1B"/>
<path d="M18.7963 18.5231C18.8704 18.8989 19.0981 19.2181 19.5142 19.2181C19.8498 19.2181 19.975 19.013 19.975 18.8138C19.975 18.1415 18.7337 18.3578 18.7337 17.4409C18.7337 17.1218 18.9903 16.7114 19.6166 16.7114C19.7987 16.7114 20.0436 16.7629 20.2657 16.8769L20.3056 17.4575H20.1747C20.1178 17.099 19.9184 16.8941 19.5536 16.8941C19.3256 16.8941 19.1094 17.025 19.1094 17.2699C19.1094 17.9369 20.4311 17.7313 20.4311 18.6256C20.4311 19.0015 20.1292 19.4006 19.4511 19.4006C19.2233 19.4006 18.9555 19.3208 18.7564 19.207L18.6934 18.5519L18.7963 18.5231Z" fill="#1D1D1B"/>
<path d="M25.5718 16.3692H25.4295C25.3211 15.7033 24.8482 15.4352 24.2105 15.4352C23.5551 15.4352 22.6034 15.8735 22.6034 17.2408C22.6034 18.392 23.4245 19.2178 24.3013 19.2178C24.8651 19.2178 25.3326 18.8307 25.4467 18.2321L25.5775 18.2662L25.4467 19.098C25.2073 19.2465 24.5635 19.4002 24.1873 19.4002C22.8547 19.4002 22.0117 18.54 22.0117 17.2582C22.0117 16.0902 23.0539 15.2524 24.1704 15.2524C24.6317 15.2524 25.0762 15.401 25.5146 15.5549L25.5718 16.3692Z" fill="#1D1D1B"/>
<path d="M25.7793 19.1669H25.8872C26.0471 19.1669 26.161 19.1669 26.161 18.9785V15.806C26.161 15.4355 26.0755 15.4242 25.8591 15.3616V15.2704C26.0868 15.1965 26.3261 15.094 26.4457 15.0253C26.508 14.9913 26.5539 14.9624 26.5707 14.9624C26.6052 14.9624 26.6168 14.9968 26.6168 15.0425V18.9785C26.6168 19.1669 26.742 19.1669 26.9017 19.1669H26.998V19.315C26.8048 19.315 26.6052 19.3036 26.4003 19.3036C26.1954 19.3036 25.9902 19.3091 25.7793 19.315V19.1669Z" fill="#1D1D1B"/>
<path d="M29.4363 19.0012C29.4363 19.104 29.4986 19.1094 29.5955 19.1094C29.6639 19.1094 29.7491 19.104 29.8235 19.104V19.2238C29.5782 19.2465 29.1111 19.3661 29.0029 19.4003L28.9744 19.3831V18.9218C28.6329 19.2008 28.3707 19.4003 27.9657 19.4003C27.6581 19.4003 27.3393 19.2009 27.3393 18.7226V17.2638C27.3393 17.1157 27.3166 16.9733 26.998 16.945V16.8366C27.2031 16.831 27.6581 16.7969 27.7325 16.7969C27.7956 16.7969 27.7956 16.8366 27.7956 16.962V18.4315C27.7956 18.6025 27.7956 19.0924 28.2908 19.0924C28.4845 19.0924 28.7408 18.9443 28.9798 18.7453V17.2124C28.9798 17.0987 28.7065 17.0363 28.5019 16.9793V16.8766C29.014 16.8423 29.3334 16.7969 29.3904 16.7969C29.4362 16.7969 29.4362 16.8366 29.4362 16.8996L29.4363 19.0012Z" fill="#1D1D1B"/>
<path d="M30.5704 18.6709C30.5704 18.8874 30.7753 19.2522 31.157 19.2522C31.7666 19.2522 32.0228 18.6539 32.0228 18.1467C32.0228 17.5316 31.5561 17.0191 31.1118 17.0191C30.9003 17.0191 30.724 17.1561 30.5704 17.2871V18.6709ZM30.5704 17.1213C30.798 16.928 31.1059 16.7113 31.4192 16.7113C32.08 16.7113 32.4785 17.2871 32.4785 17.9077C32.4785 18.654 31.9317 19.4004 31.1168 19.4004C30.6957 19.4004 30.4735 19.2636 30.3251 19.201L30.1545 19.3318L30.0353 19.2694C30.0856 18.9333 30.1147 18.6027 30.1147 18.2552V15.8059C30.1147 15.4354 30.0289 15.424 29.8125 15.3614V15.2702C30.0409 15.1963 30.2797 15.0938 30.3993 15.0252C30.4621 14.9912 30.5074 14.9624 30.5249 14.9624C30.5591 14.9624 30.5704 14.9968 30.5704 15.0423V17.1213Z" fill="#1D1D1B"/>
</g>
</g>
</g>
</g>
<defs>
<clipPath id="clip0_278_2253">
<rect width="38" height="24" fill="white" transform="translate(0 0.19043)"/>
</clipPath>
<clipPath id="clip1_278_2253">
<rect width="38" height="24" fill="white" transform="translate(0 0.19043)"/>
</clipPath>
<clipPath id="clip2_278_2253">
<rect width="38" height="24" fill="white" transform="translate(0 0.19043)"/>
</clipPath>
</defs>
</svg>
