<svg width="38" height="25" viewBox="0 0 38 25" fill="none" xmlns="http://www.w3.org/2000/svg">
<g clip-path="url(#clip0_278_2234)">
<g clip-path="url(#clip1_278_2234)">
<g clip-path="url(#clip2_278_2234)">
<mask id="mask0_278_2234" style="mask-type:luminance" maskUnits="userSpaceOnUse" x="0" y="0" width="38" height="25">
<path d="M38 0.19043H0V24.1904H38V0.19043Z" fill="white"/>
</mask>
<g mask="url(#mask0_278_2234)">
<path d="M35 0.19043H3C1.3 0.19043 0 1.49043 0 3.19043V21.1904C0 22.8904 1.4 24.1904 3 24.1904H35C36.7 24.1904 38 22.8904 38 21.1904V3.19043C38 1.49043 36.6 0.19043 35 0.19043Z" fill="#F9F7E9"/>
<path d="M35 1.19043C36.1 1.19043 37 2.09043 37 3.19043V21.1904C37 22.2904 36.1 23.1904 35 23.1904H3C1.9 23.1904 1 22.2904 1 21.1904V3.19043C1 2.09043 1.9 1.19043 3 1.19043H35Z" fill="white"/>
<path d="M3.57 7.35047H2V12.8505H3.57C4.4 12.8505 5 12.6505 5.53 12.2205C6.16 11.7005 6.53 10.9205 6.53 10.1105C6.52 8.48047 5.31 7.35047 3.57 7.35047ZM4.83 11.4905C4.49 11.7905 4.06 11.9305 3.36 11.9305H3.07V8.29047H3.36C4.05 8.29047 4.47 8.41047 4.83 8.73047C5.2 9.06047 5.42 9.57047 5.42 10.1005C5.42 10.6305 5.2 11.1605 4.83 11.4905ZM7.02 7.35047H8.09V12.8505H7.02V7.35047ZM10.71 9.46047C10.07 9.22047 9.88 9.06047 9.88 8.77047C9.88 8.42047 10.22 8.16047 10.68 8.16047C11 8.16047 11.27 8.29047 11.54 8.61047L12.1 7.88047C11.64 7.48047 11.09 7.27047 10.48 7.27047C9.51 7.27047 8.76 7.95047 8.76 8.85047C8.76 9.61047 9.11 10.0005 10.11 10.3605C10.53 10.5105 10.74 10.6105 10.85 10.6705C11.06 10.8105 11.17 11.0105 11.17 11.2405C11.17 11.6905 10.82 12.0205 10.34 12.0205C9.83 12.0205 9.42 11.7605 9.17 11.2905L8.48 11.9605C8.97 12.6905 9.57 13.0105 10.38 13.0105C11.49 13.0105 12.28 12.2705 12.28 11.2005C12.3 10.3105 11.93 9.91047 10.71 9.46047ZM12.63 10.1105C12.63 11.7305 13.9 12.9805 15.53 12.9805C15.99 12.9805 16.39 12.8905 16.87 12.6605V11.4005C16.44 11.8305 16.06 12.0005 15.58 12.0005C14.5 12.0005 13.73 11.2205 13.73 10.1005C13.73 9.04047 14.52 8.21047 15.53 8.21047C16.04 8.21047 16.43 8.39047 16.87 8.83047V7.57047C16.4 7.33047 16.01 7.23047 15.55 7.23047C13.94 7.23047 12.63 8.51047 12.63 10.1105ZM25.39 11.0505L23.92 7.35047H22.75L25.08 12.9905H25.66L28.03 7.35047H26.87L25.39 11.0505ZM28.52 12.8505H31.56V11.9205H29.59V10.4405H31.49V9.51047H29.59V8.29047H31.56V7.35047H28.52V12.8505ZM35.81 8.98047C35.81 7.95047 35.1 7.36047 33.86 7.36047H32.27V12.8605H33.34V10.6505H33.48L34.96 12.8605H36.28L34.55 10.5405C35.36 10.3705 35.81 9.82047 35.81 8.98047ZM33.65 9.89047H33.34V8.22047H33.67C34.34 8.22047 34.7 8.50047 34.7 9.04047C34.7 9.59047 34.34 9.89047 33.65 9.89047Z" fill="#231F20"/>
<path d="M20.1595 13.0505C20.9369 13.0505 21.6824 12.7417 22.232 12.192C22.7817 11.6424 23.0905 10.8969 23.0905 10.1195C23.0905 9.34213 22.7817 8.59662 22.232 8.04695C21.6824 7.49728 20.9369 7.18848 20.1595 7.18848C19.3822 7.18848 18.6366 7.49728 18.087 8.04695C17.5373 8.59662 17.2285 9.34213 17.2285 10.1195C17.2285 10.8969 17.5373 11.6424 18.087 12.192C18.6366 12.7417 19.3822 13.0505 20.1595 13.0505Z" fill="url(#paint0_linear_278_2234)"/>
<path opacity="0.65" d="M20.1595 13.0505C20.9369 13.0505 21.6824 12.7417 22.232 12.192C22.7817 11.6424 23.0905 10.8969 23.0905 10.1195C23.0905 9.34213 22.7817 8.59662 22.232 8.04695C21.6824 7.49728 20.9369 7.18848 20.1595 7.18848C19.3822 7.18848 18.6366 7.49728 18.087 8.04695C17.5373 8.59662 17.2285 9.34213 17.2285 10.1195C17.2285 10.8969 17.5373 11.6424 18.087 12.192C18.6366 12.7417 19.3822 13.0505 20.1595 13.0505Z" fill="url(#paint1_linear_278_2234)"/>
<path d="M36.5705 7.69639C36.5705 7.59639 36.5005 7.54639 36.3905 7.54639H36.2305V8.02639H36.3505V7.83639L36.4905 8.02639H36.6305L36.4705 7.82639C36.5305 7.81639 36.5705 7.76639 36.5705 7.69639ZM36.3705 7.76639H36.3505V7.63639H36.3705C36.4305 7.63639 36.4605 7.65639 36.4605 7.69639C36.4605 7.74639 36.4305 7.76639 36.3705 7.76639Z" fill="#231F20"/>
<path d="M36.4102 7.36621C36.1802 7.36621 35.9902 7.55621 35.9902 7.78621C35.9902 8.01621 36.1802 8.20621 36.4102 8.20621C36.6402 8.20621 36.8302 8.01621 36.8302 7.78621C36.8302 7.55621 36.6402 7.36621 36.4102 7.36621ZM36.4102 8.13621C36.2302 8.13621 36.0702 7.98621 36.0702 7.78621C36.0702 7.59621 36.2202 7.43621 36.4102 7.43621C36.5902 7.43621 36.7402 7.59621 36.7402 7.78621C36.7402 7.97621 36.5902 8.13621 36.4102 8.13621Z" fill="#231F20"/>
<path d="M37.0006 13.1743C37.0006 13.1743 27.0906 20.0633 8.97656 23.1903H34.9996C35.5273 23.1903 36.0336 22.9818 36.4082 22.6102C36.7828 22.2386 36.9954 21.734 36.9996 21.2063L37.0236 18.1863L37.0006 13.1743Z" fill="#F48120"/>
</g>
</g>
</g>
</g>
<defs>
<linearGradient id="paint0_linear_278_2234" x1="21.6565" y1="12.4655" x2="19.6315" y2="9.29448" gradientUnits="userSpaceOnUse">
<stop stop-color="#F89F20"/>
<stop offset="0.25" stop-color="#F79A20"/>
<stop offset="0.533" stop-color="#F68D20"/>
<stop offset="0.62" stop-color="#F58720"/>
<stop offset="0.723" stop-color="#F48120"/>
<stop offset="1" stop-color="#F37521"/>
</linearGradient>
<linearGradient id="paint1_linear_278_2234" x1="21.3375" y1="12.4225" x2="18.3775" y2="6.63648" gradientUnits="userSpaceOnUse">
<stop stop-color="#F58720"/>
<stop offset="0.359" stop-color="#E16F27"/>
<stop offset="0.703" stop-color="#D4602C"/>
<stop offset="0.982" stop-color="#D05B2E"/>
</linearGradient>
<clipPath id="clip0_278_2234">
<rect width="38" height="24" fill="white" transform="translate(0 0.19043)"/>
</clipPath>
<clipPath id="clip1_278_2234">
<rect width="38" height="24" fill="white" transform="translate(0 0.19043)"/>
</clipPath>
<clipPath id="clip2_278_2234">
<rect width="38" height="24" fill="white" transform="translate(0 0.19043)"/>
</clipPath>
</defs>
</svg>
