<svg width="38" height="25" viewBox="0 0 38 25" fill="none" xmlns="http://www.w3.org/2000/svg">
<g clip-path="url(#clip0_278_2278)">
<g clip-path="url(#clip1_278_2278)">
<g clip-path="url(#clip2_278_2278)">
<mask id="mask0_278_2278" style="mask-type:luminance" maskUnits="userSpaceOnUse" x="0" y="0" width="38" height="25">
<path d="M38 0.19043H0V24.1904H38V0.19043Z" fill="white"/>
</mask>
<g mask="url(#mask0_278_2278)">
<path d="M35 0.19043H3C1.3 0.19043 0 1.49043 0 3.19043V21.1904C0 22.8904 1.4 24.1904 3 24.1904H35C36.7 24.1904 38 22.8904 38 21.1904V3.19043C38 1.49043 36.6 0.19043 35 0.19043Z" fill="#F9F7E9"/>
<path d="M35 1.19043C36.1 1.19043 37 2.09043 37 3.19043V21.1904C37 22.2904 36.1 23.1904 35 23.1904H3C1.9 23.1904 1 22.2904 1 21.1904V3.19043C1 2.09043 1.9 1.19043 3 1.19043H35Z" fill="white"/>
<path d="M9.06696 9.401C9.35967 9.30493 9.67422 9.2481 10.0018 9.2481C11.4261 9.2481 12.6143 10.2616 12.8852 11.6028L14.9036 11.1921C14.4405 8.90734 12.4221 7.19043 10.0018 7.19043C9.44704 7.19043 8.91406 7.28217 8.41602 7.44818L9.06696 9.401Z" fill="#FFF100"/>
<path d="M6.68633 15.9328L8.04937 14.3906C7.41769 13.8314 7.05649 13.028 7.05767 12.1844C7.05767 11.3063 7.44211 10.5199 8.04937 9.98259L6.68633 8.44043C5.65094 9.35786 5 10.6947 5 12.1844C5 13.6741 5.65094 15.0153 6.68633 15.9328Z" fill="#00A3DF"/>
<path d="M12.8818 12.7905C12.6066 14.1317 11.4226 15.1408 9.99842 15.1408C9.67076 15.1408 9.35622 15.0884 9.06351 14.9879L8.4082 16.9408C8.90624 17.1068 9.43922 17.1985 9.99405 17.1985C12.4143 17.1985 14.4283 15.4816 14.8958 13.2011L12.8818 12.7905Z" fill="#EE4023"/>
<path d="M21.6183 14.1503C21.2863 14.4736 20.8319 14.6702 20.334 14.6659C19.9931 14.6615 19.6742 14.5567 19.4078 14.3863L18.7394 15.4522C19.1981 15.7406 19.7355 15.911 20.3165 15.9196C21.164 15.9328 21.9329 15.6007 22.4965 15.0504L21.6183 14.1503ZM20.4082 9.81662C18.7262 9.79036 17.337 11.1359 17.3108 12.8223C17.3021 13.4557 17.4856 14.0455 17.8045 14.5348L23.3309 12.1713C23.0208 10.8389 21.8367 9.83846 20.4082 9.81662ZM18.5778 13.0581C18.569 12.9882 18.5647 12.914 18.569 12.8397C18.5865 11.848 19.4035 11.053 20.3952 11.0704C20.9369 11.0791 21.4131 11.3238 21.7407 11.7082L18.5778 13.0581ZM25.0653 8.44043V14.3338L26.0875 14.7576L25.6026 15.9196L24.5934 15.5003C24.3663 15.3998 24.2134 15.2512 24.0954 15.0809C23.9818 14.9061 23.8988 14.6702 23.8988 14.3513V8.44043H25.0653ZM28.7525 11.1621C28.9317 11.1009 29.1239 11.0703 29.3204 11.0703C30.1898 11.0703 30.915 11.6864 31.0811 12.5076L32.313 12.2586C32.0291 10.865 30.7972 9.81658 29.3204 9.81658C28.9841 9.81658 28.6565 9.87337 28.355 9.97385L28.7525 11.1621ZM27.3021 15.1551L28.1366 14.2158C27.7652 13.8881 27.5293 13.4076 27.5293 12.8702C27.5293 12.3329 27.7652 11.8567 28.1366 11.5247L27.3021 10.5854C26.6687 11.1446 26.271 11.9615 26.271 12.8702C26.271 13.7789 26.6687 14.5959 27.3021 15.1551ZM31.0811 13.2285C30.915 14.0455 30.1899 14.6658 29.3204 14.6658C29.1194 14.6658 28.9317 14.6352 28.7525 14.574L28.3549 15.7667C28.6607 15.8672 28.984 15.924 29.3248 15.924C30.8014 15.924 32.0334 14.8755 32.3173 13.4819L31.0811 13.2285Z" fill="black"/>
</g>
</g>
</g>
</g>
<defs>
<clipPath id="clip0_278_2278">
<rect width="38" height="24" fill="white" transform="translate(0 0.19043)"/>
</clipPath>
<clipPath id="clip1_278_2278">
<rect width="38" height="24" fill="white" transform="translate(0 0.19043)"/>
</clipPath>
<clipPath id="clip2_278_2278">
<rect width="38" height="24" fill="white" transform="translate(0 0.19043)"/>
</clipPath>
</defs>
</svg>
