<svg width="38" height="25" viewBox="0 0 38 25" fill="none" xmlns="http://www.w3.org/2000/svg">
<g clip-path="url(#clip0_278_2150)">
<g clip-path="url(#clip1_278_2150)">
<g clip-path="url(#clip2_278_2150)">
<mask id="mask0_278_2150" style="mask-type:luminance" maskUnits="userSpaceOnUse" x="0" y="0" width="38" height="25">
<path d="M38 0.19043H0V24.1904H38V0.19043Z" fill="white"/>
</mask>
<g mask="url(#mask0_278_2150)">
<path d="M35 0.19043H3C1.3 0.19043 0 1.49043 0 3.19043V21.1904C0 22.8904 1.4 24.1904 3 24.1904H35C36.7 24.1904 38 22.8904 38 21.1904V3.19043C38 1.49043 36.6 0.19043 35 0.19043Z" fill="#F9F7E9"/>
<path d="M35 1.19043C36.1 1.19043 37 2.09043 37 3.19043V21.1904C37 22.2904 36.1 23.1904 35 23.1904H3C1.9 23.1904 1 22.2904 1 21.1904V3.19043C1 2.09043 1.9 1.19043 3 1.19043H35Z" fill="white"/>
<mask id="mask1_278_2150" style="mask-type:luminance" maskUnits="userSpaceOnUse" x="6" y="7" width="26" height="11">
<path d="M31.1817 7.19043H6V17.1904H31.1817V7.19043Z" fill="white"/>
</mask>
<g mask="url(#mask1_278_2150)">
<path d="M17.9104 12.0754V15.0067H16.9805V7.76758H19.4468C19.7412 7.76143 20.0339 7.81365 20.308 7.92121C20.5821 8.02877 20.8322 8.18956 21.0439 8.39428C21.2577 8.58658 21.4278 8.82241 21.5429 9.08592C21.6579 9.34943 21.7153 9.63452 21.711 9.92203C21.7171 10.2111 21.6607 10.4981 21.5455 10.7632C21.4304 11.0284 21.2593 11.2656 21.0439 11.4585C20.6126 11.8697 20.0803 12.0752 19.4468 12.0748L17.9104 12.0754ZM17.9104 8.65882V11.1858H19.4699C19.6409 11.1909 19.811 11.1602 19.9695 11.0958C20.1279 11.0313 20.2712 10.9345 20.39 10.8116C20.5083 10.6966 20.6023 10.5591 20.6665 10.4071C20.7307 10.2552 20.7638 10.0919 20.7638 9.92694C20.7638 9.762 20.7307 9.59873 20.6665 9.44679C20.6023 9.29485 20.5083 9.15733 20.39 9.04235C20.2726 8.91678 20.1299 8.8176 19.9713 8.75138C19.8126 8.68516 19.6418 8.65342 19.4699 8.65824L17.9104 8.65882Z" fill="#5F6368"/>
<path d="M23.8528 9.89209C24.5402 9.89209 25.0827 10.0758 25.4805 10.4431C25.8783 10.8105 26.077 11.3142 26.0766 11.9542V15.0068H25.1871V14.3194H25.1466C24.7616 14.8855 24.2494 15.1685 23.6102 15.1685C23.0646 15.1685 22.6081 15.0068 22.2407 14.6833C22.0644 14.5349 21.9235 14.3489 21.8282 14.1391C21.7328 13.9293 21.6855 13.7008 21.6897 13.4704C21.6897 12.9578 21.8834 12.5502 22.2708 12.2476C22.6581 11.9449 23.1753 11.7932 23.8222 11.7924C24.3744 11.7924 24.8292 11.8935 25.1865 12.0957V11.8831C25.1875 11.726 25.1536 11.5706 25.0872 11.4283C25.0208 11.2859 24.9235 11.1601 24.8024 11.06C24.5565 10.8382 24.236 10.7171 23.9048 10.721C23.3853 10.721 22.9743 10.9401 22.6716 11.3783L21.8526 10.8625C22.3031 10.2156 22.9699 9.89209 23.8528 9.89209ZM22.6497 13.4906C22.649 13.6089 22.6767 13.7257 22.7304 13.8312C22.784 13.9367 22.8621 14.0278 22.9581 14.0971C23.1638 14.2588 23.4191 14.3445 23.6807 14.3396C24.0731 14.339 24.4493 14.1828 24.7267 13.9053C25.0348 13.6153 25.1888 13.2751 25.1888 12.8847C24.8988 12.6536 24.4945 12.5381 23.9758 12.5381C23.5981 12.5381 23.2831 12.6292 23.0309 12.8113C22.7762 12.9961 22.6497 13.2208 22.6497 13.4906Z" fill="#5F6368"/>
<path d="M31.1831 10.0542L28.0779 17.1904H27.118L28.2703 14.6934L26.2285 10.0542H27.2393L28.715 13.6122H28.7352L30.1706 10.0542H31.1831Z" fill="#5F6368"/>
<path d="M14.1517 11.4438C14.152 11.1604 14.1281 10.8774 14.0801 10.5981H10.1582V12.1998H12.4044C12.3585 12.4556 12.2612 12.6995 12.1184 12.9167C11.9757 13.1339 11.7904 13.3199 11.5739 13.4636V14.5033H12.9145C13.6994 13.7796 14.1517 12.7093 14.1517 11.4438Z" fill="#4285F4"/>
<path d="M10.1591 15.5077C11.2814 15.5077 12.2263 15.1392 12.9154 14.5039L11.5748 13.4642C11.2017 13.7172 10.7211 13.8616 10.1591 13.8616C9.07433 13.8616 8.15364 13.1303 7.82441 12.145H6.44336V13.2164C6.7895 13.9052 7.32026 14.4842 7.9764 14.8888C8.63253 15.2934 9.38821 15.5077 10.1591 15.5077Z" fill="#34A853"/>
<path d="M7.82388 12.1448C7.64982 11.6284 7.64982 11.0692 7.82388 10.5529V9.48145H6.44283C6.15165 10.0609 6 10.7004 6 11.3488C6 11.9973 6.15165 12.6368 6.44283 13.2162L7.82388 12.1448Z" fill="#FBBC04"/>
<path d="M10.1591 8.83637C10.7522 8.82668 11.3252 9.05076 11.7544 9.46018L12.9414 8.27321C12.1887 7.56627 11.1916 7.17815 10.1591 7.19021C9.38821 7.19024 8.63253 7.40453 7.9764 7.80914C7.32026 8.21376 6.7895 8.79277 6.44336 9.48155L7.82441 10.553C8.15364 9.56761 9.07433 8.83637 10.1591 8.83637Z" fill="#EA4335"/>
</g>
</g>
</g>
</g>
</g>
<defs>
<clipPath id="clip0_278_2150">
<rect width="38" height="24" fill="white" transform="translate(0 0.19043)"/>
</clipPath>
<clipPath id="clip1_278_2150">
<rect width="38" height="24" fill="white" transform="translate(0 0.19043)"/>
</clipPath>
<clipPath id="clip2_278_2150">
<rect width="38" height="24" fill="white" transform="translate(0 0.19043)"/>
</clipPath>
</defs>
</svg>
