<svg width="38" height="25" viewBox="0 0 38 25" fill="none" xmlns="http://www.w3.org/2000/svg">
<g clip-path="url(#clip0_278_2200)">
<g clip-path="url(#clip1_278_2200)">
<g clip-path="url(#clip2_278_2200)">
<g clip-path="url(#clip3_278_2200)">
<mask id="mask0_278_2200" style="mask-type:luminance" maskUnits="userSpaceOnUse" x="0" y="0" width="38" height="25">
<path d="M38 0.19043H0V24.1904H38V0.19043Z" fill="white"/>
</mask>
<g mask="url(#mask0_278_2200)">
<path d="M35 0.19043H3C1.3 0.19043 0 1.49043 0 3.19043V21.1904C0 22.8904 1.4 24.1904 3 24.1904H35C36.7 24.1904 38 22.8904 38 21.1904V3.19043C38 1.49043 36.6 0.19043 35 0.19043Z" fill="#F9F7E9"/>
<path d="M35 1.19043C36.1 1.19043 37 2.09043 37 3.19043V21.1904C37 22.2904 36.1 23.1904 35 23.1904H3C1.9 23.1904 1 22.2904 1 21.1904V3.19043C1 2.09043 1.9 1.19043 3 1.19043H35Z" fill="white"/>
<path d="M15 19.1904C18.866 19.1904 22 16.0564 22 12.1904C22 8.32444 18.866 5.19043 15 5.19043C11.134 5.19043 8 8.32444 8 12.1904C8 16.0564 11.134 19.1904 15 19.1904Z" fill="#EB001B"/>
<path d="M23 19.1904C26.866 19.1904 30 16.0564 30 12.1904C30 8.32444 26.866 5.19043 23 5.19043C19.134 5.19043 16 8.32444 16 12.1904C16 16.0564 19.134 19.1904 23 19.1904Z" fill="#F79E1B"/>
<path d="M22 12.1902C22 9.79023 20.8 7.69023 19 6.49023C17.2 7.79023 16 9.89023 16 12.1902C16 14.4902 17.2 16.6902 19 17.8902C20.8 16.6902 22 14.5902 22 12.1902Z" fill="#FF5F00"/>
</g>
</g>
</g>
</g>
</g>
<defs>
<clipPath id="clip0_278_2200">
<rect width="38" height="24" fill="white" transform="translate(0 0.19043)"/>
</clipPath>
<clipPath id="clip1_278_2200">
<rect width="38" height="24" fill="white" transform="translate(0 0.19043)"/>
</clipPath>
<clipPath id="clip2_278_2200">
<rect width="38" height="24" fill="white" transform="translate(0 0.19043)"/>
</clipPath>
<clipPath id="clip3_278_2200">
<rect width="38" height="24" fill="white" transform="translate(0 0.19043)"/>
</clipPath>
</defs>
</svg>
