<svg width="38" height="25" viewBox="0 0 38 25" fill="none" xmlns="http://www.w3.org/2000/svg">
<g clip-path="url(#clip0_278_2186)">
<g clip-path="url(#clip1_278_2186)">
<g clip-path="url(#clip2_278_2186)">
<g clip-path="url(#clip3_278_2186)">
<mask id="mask0_278_2186" style="mask-type:luminance" maskUnits="userSpaceOnUse" x="0" y="0" width="38" height="25">
<path d="M38 0.19043H0V24.1904H38V0.19043Z" fill="white"/>
</mask>
<g mask="url(#mask0_278_2186)">
<path d="M35 0.19043H3C1.3 0.19043 0 1.49043 0 3.19043V21.1904C0 22.8904 1.4 24.1904 3 24.1904H35C36.7 24.1904 38 22.8904 38 21.1904V3.19043C38 1.49043 36.6 0.19043 35 0.19043Z" fill="#F9F7E9"/>
<path d="M35 1.19043C36.1 1.19043 37 2.09043 37 3.19043V21.1904C37 22.2904 36.1 23.1904 35 23.1904H3C1.9 23.1904 1 22.2904 1 21.1904V3.19043C1 2.09043 1.9 1.19043 3 1.19043H35Z" fill="white"/>
<path d="M28.3 10.2904H28C27.6 11.2904 27.3 11.7904 27 13.2904H28.9C28.6 11.7904 28.6 11.0904 28.3 10.2904ZM31.2 16.1904H29.5C29.4 16.1904 29.4 16.1904 29.3 16.0904L29.1 15.1904L29 14.9904H26.6C26.5 14.9904 26.4 14.9904 26.4 15.1904L26.1 16.0904C26.1 16.1904 26 16.1904 26 16.1904H23.9L24.1 15.6904L27 8.89043C27 8.39043 27.3 8.19043 27.8 8.19043H29.3C29.4 8.19043 29.5 8.19043 29.5 8.39043L30.9 14.8904C31 15.2904 31.1 15.5904 31.1 15.9904C31.2 16.0904 31.2 16.0904 31.2 16.1904ZM17.8 15.8904L18.2 14.0904C18.3 14.0904 18.4 14.1904 18.4 14.1904C19.1 14.4904 19.8 14.6904 20.5 14.5904C20.7 14.5904 21 14.4904 21.2 14.3904C21.7 14.1904 21.7 13.6904 21.3 13.2904C21.1 13.0904 20.8 12.9904 20.5 12.7904C20.1 12.5904 19.7 12.3904 19.4 12.0904C18.2 11.0904 18.6 9.69043 19.3 8.99043C19.9 8.59043 20.2 8.19043 21 8.19043C22.2 8.19043 23.5 8.19043 24.1 8.39043H24.2C24.1 8.99043 24 9.49043 23.8 10.0904C23.3 9.89043 22.8 9.69043 22.3 9.69043C22 9.69043 21.7 9.69043 21.4 9.79043C21.2 9.79043 21.1 9.89043 21 9.99043C20.8 10.1904 20.8 10.4904 21 10.6904L21.5 11.0904C21.9 11.2904 22.3 11.4904 22.6 11.6904C23.1 11.9904 23.6 12.4904 23.7 13.0904C23.9 13.9904 23.6 14.7904 22.8 15.3904C22.3 15.7904 22.1 15.9904 21.4 15.9904C20 15.9904 18.9 16.0904 18 15.7904C17.9 15.9904 17.9 15.9904 17.8 15.8904ZM14.3 16.1904C14.4 15.4904 14.4 15.4904 14.5 15.1904C15 12.9904 15.5 10.6904 15.9 8.49043C16 8.29043 16 8.19043 16.2 8.19043H18C17.8 9.39043 17.6 10.2904 17.3 11.3904C17 12.8904 16.7 14.3904 16.3 15.8904C16.3 16.0904 16.2 16.0904 16 16.0904M5 8.39043C5 8.29043 5.2 8.19043 5.3 8.19043H8.7C9.2 8.19043 9.6 8.49043 9.7 8.99043L10.6 13.3904C10.6 13.4904 10.6 13.4904 10.7 13.5904C10.7 13.4904 10.8 13.4904 10.8 13.4904L12.9 8.39043C12.8 8.29043 12.9 8.19043 13 8.19043H15.1C15.1 8.29043 15.1 8.29043 15 8.39043L11.9 15.6904C11.8 15.8904 11.8 15.9904 11.7 16.0904C11.6 16.1904 11.4 16.0904 11.2 16.0904H9.7C9.6 16.0904 9.5 16.0904 9.5 15.8904L7.9 9.69043C7.7 9.49043 7.4 9.19043 7 9.09043C6.4 8.79043 5.3 8.59043 5.1 8.59043L5 8.39043Z" fill="#142688"/>
</g>
</g>
</g>
</g>
</g>
<defs>
<clipPath id="clip0_278_2186">
<rect width="38" height="24" fill="white" transform="translate(0 0.19043)"/>
</clipPath>
<clipPath id="clip1_278_2186">
<rect width="38" height="24" fill="white" transform="translate(0 0.19043)"/>
</clipPath>
<clipPath id="clip2_278_2186">
<rect width="38" height="24" fill="white" transform="translate(0 0.19043)"/>
</clipPath>
<clipPath id="clip3_278_2186">
<rect width="38" height="24" fill="white" transform="translate(0 0.19043)"/>
</clipPath>
</defs>
</svg>
