<svg width="38" height="25" viewBox="0 0 38 25" fill="none" xmlns="http://www.w3.org/2000/svg">
<g clip-path="url(#clip0_278_2092)">
<g clip-path="url(#clip1_278_2092)">
<g clip-path="url(#clip2_278_2092)">
<g clip-path="url(#clip3_278_2092)">
<mask id="mask0_278_2092" style="mask-type:luminance" maskUnits="userSpaceOnUse" x="0" y="0" width="38" height="25">
<path d="M38 0.19043H0V24.1904H38V0.19043Z" fill="white"/>
</mask>
<g mask="url(#mask0_278_2092)">
<path d="M35 0.19043H3C1.3 0.19043 0 1.49043 0 3.19043V21.1904C0 22.8904 1.4 24.1904 3 24.1904H35C36.7 24.1904 38 22.8904 38 21.1904V3.19043C38 1.49043 36.6 0.19043 35 0.19043Z" fill="#F9F7E9"/>
<path d="M35 1.19043C36.1 1.19043 37 2.09043 37 3.19043V21.1904C37 22.2904 36.1 23.1904 35 23.1904H3C1.9 23.1904 1 22.2904 1 21.1904V3.19043C1 2.09043 1.9 1.19043 3 1.19043H35Z" fill="white"/>
<path fill-rule="evenodd" clip-rule="evenodd" d="M23.3541 9.19043C22.755 9.19043 22.2695 9.66905 22.2695 10.2594V15.1214C22.2695 15.7118 22.755 16.1904 23.3541 16.1904H32.1929C32.7919 16.1904 33.2775 15.7118 33.2775 15.1214V10.2594C33.2775 9.66905 32.7919 9.19043 32.1929 9.19043H23.3541ZM24.9023 14.0788V12.8464H25.6889C26.4076 12.8464 26.7897 12.4492 26.7897 11.8474C26.7897 11.2455 26.4076 10.8852 25.6889 10.8852H24.3956V14.0788H24.9023ZM24.9023 11.3602H25.5726C26.0378 11.3602 26.2664 11.5485 26.2664 11.8638C26.2664 12.179 26.0461 12.3674 25.5933 12.3674H24.9023V11.3602ZM27.6832 14.1443C28.0695 14.1443 28.3229 13.9764 28.4392 13.6898C28.4725 14.0092 28.6678 14.1729 29.0914 14.0624L29.0956 13.7226C28.9253 13.7389 28.892 13.6775 28.892 13.5015V12.6662C28.892 12.1749 28.5639 11.8842 27.9574 11.8842C27.3592 11.8842 27.0144 12.179 27.0144 12.6785H27.4797C27.4797 12.4411 27.65 12.2978 27.9491 12.2978C28.2648 12.2978 28.4102 12.4329 28.406 12.6662V12.7727L27.8701 12.83C27.2678 12.8955 26.9355 13.1207 26.9355 13.5138C26.9355 13.8372 27.1681 14.1443 27.6832 14.1443ZM27.787 13.7758C27.5254 13.7758 27.4215 13.6366 27.4215 13.4974C27.4215 13.309 27.6376 13.2231 28.0612 13.1739L28.3936 13.1371C28.3728 13.4974 28.1277 13.7758 27.787 13.7758ZM30.6343 14.2384C30.4225 14.7461 30.0819 14.8976 29.5502 14.8976H29.3216V14.48H29.5668C29.8575 14.48 29.9988 14.3899 30.1525 14.132L29.2095 11.9497H29.7329L30.4059 13.5424L31.0041 11.9497H31.515L30.6343 14.2384Z" fill="#5A31F4"/>
<path d="M6.05653 12.2671C5.36262 12.1188 5.05348 12.0607 5.05348 11.7972C5.05348 11.5493 5.26269 11.4258 5.68109 11.4258C6.04906 11.4258 6.31804 11.5843 6.51603 11.8949C6.53097 11.9188 6.56179 11.9271 6.58701 11.9142L7.36778 11.5253C7.3958 11.5115 7.40608 11.4765 7.3902 11.4498C7.06612 10.896 6.46747 10.5928 5.67922 10.5928C4.64349 10.5928 4 11.0959 4 11.8958C4 12.7454 4.78357 12.9601 5.47843 13.1085C6.17327 13.2568 6.48334 13.3149 6.48334 13.5784C6.48334 13.842 6.25733 13.9664 5.80623 13.9664C5.3897 13.9664 5.08057 13.7784 4.89378 13.4135C4.87977 13.3868 4.84708 13.3757 4.82 13.3895L4.04109 13.7701C4.01401 13.7839 4.0028 13.8162 4.01681 13.8438C4.32594 14.4566 4.96009 14.8013 5.80717 14.8013C6.88587 14.8013 7.53776 14.3064 7.53776 13.4817C7.53776 12.6569 6.75045 12.4174 6.05653 12.269V12.2671Z" fill="#5A31F4"/>
<path d="M10.2411 10.5929C9.79843 10.5929 9.40711 10.7477 9.12599 11.0232C9.10825 11.0398 9.0793 11.0279 9.0793 11.0039V9.2448C9.0793 9.21439 9.05501 9.19043 9.0242 9.19043H8.0473C8.01648 9.19043 7.99219 9.21439 7.99219 9.2448V14.7046C7.99219 14.735 8.01648 14.759 8.0473 14.759H9.0242C9.05501 14.759 9.0793 14.735 9.0793 14.7046V12.3097C9.0793 11.8471 9.43886 11.4923 9.92358 11.4923C10.4083 11.4923 10.7595 11.8397 10.7595 12.3097V14.7046C10.7595 14.735 10.7837 14.759 10.8146 14.759H11.7915C11.8223 14.759 11.8466 14.735 11.8466 14.7046V12.3097C11.8466 11.3034 11.1779 10.5929 10.2411 10.5929Z" fill="#5A31F4"/>
<path d="M13.8292 10.437C13.2988 10.437 12.8001 10.5964 12.4432 10.8277C12.419 10.8434 12.4106 10.8756 12.4256 10.9005L12.8561 11.6257C12.872 11.6515 12.9056 11.6607 12.9317 11.6451C13.2026 11.4838 13.5126 11.3999 13.8292 11.4018C14.6819 11.4018 15.3086 11.9952 15.3086 12.7794C15.3086 13.4475 14.8071 13.9423 14.171 13.9423C13.6527 13.9423 13.2932 13.6447 13.2932 13.2245C13.2932 12.984 13.3968 12.7868 13.6667 12.6476C13.6947 12.6329 13.705 12.5988 13.6882 12.5721L13.282 11.8939C13.2689 11.8717 13.2409 11.8616 13.2156 11.8708C12.6712 12.0699 12.2891 12.549 12.2891 13.1922C12.2891 14.1653 13.0746 14.8915 14.1702 14.8915C15.4496 14.8915 16.3695 14.017 16.3695 12.7628C16.3695 11.4184 15.2993 10.436 13.8274 10.436L13.8292 10.437Z" fill="#5A31F4"/>
<path d="M19.2269 10.5854C18.7328 10.5854 18.292 10.7651 17.9698 11.0821C17.9521 11.0996 17.9231 11.0867 17.9231 11.0628V10.6813C17.9231 10.6509 17.8989 10.6269 17.868 10.6269H16.9164C16.8856 10.6269 16.8613 10.6509 16.8613 10.6813V16.1328C16.8613 16.1632 16.8856 16.1872 16.9164 16.1872H17.8932C17.9241 16.1872 17.9484 16.1632 17.9484 16.1328V14.3451C17.9484 14.3212 17.9774 14.3092 17.995 14.3249C18.3164 14.6197 18.7412 14.7921 19.2279 14.7921C20.3738 14.7921 21.2676 13.877 21.2676 12.6883C21.2676 11.4995 20.3728 10.5845 19.2279 10.5845L19.2269 10.5854ZM19.043 13.8687C18.391 13.8687 17.897 13.3573 17.897 12.6809C17.897 12.0045 18.3901 11.4931 19.043 11.4931C19.6958 11.4931 20.1879 11.9962 20.1879 12.6809C20.1879 13.3656 19.7033 13.8687 19.043 13.8687Z" fill="#5A31F4"/>
</g>
</g>
</g>
</g>
</g>
<defs>
<clipPath id="clip0_278_2092">
<rect width="38" height="24" fill="white" transform="translate(0 0.19043)"/>
</clipPath>
<clipPath id="clip1_278_2092">
<rect width="38" height="24" fill="white" transform="translate(0 0.19043)"/>
</clipPath>
<clipPath id="clip2_278_2092">
<rect width="38" height="24" fill="white" transform="translate(0 0.19043)"/>
</clipPath>
<clipPath id="clip3_278_2092">
<rect width="38" height="24" fill="white" transform="translate(0 0.19043)"/>
</clipPath>
</defs>
</svg>
