<svg width="38" height="25" viewBox="0 0 38 25" fill="none" xmlns="http://www.w3.org/2000/svg">
<g clip-path="url(#clip0_278_2132)">
<g clip-path="url(#clip1_278_2132)">
<g clip-path="url(#clip2_278_2132)">
<g clip-path="url(#clip3_278_2132)">
<mask id="mask0_278_2132" style="mask-type:luminance" maskUnits="userSpaceOnUse" x="0" y="0" width="38" height="25">
<path d="M38 0.19043H0V24.1904H38V0.19043Z" fill="white"/>
</mask>
<g mask="url(#mask0_278_2132)">
<path d="M35 0.19043H3C1.3 0.19043 0 1.49043 0 3.19043V21.1904C0 22.8904 1.4 24.1904 3 24.1904H35C36.7 24.1904 38 22.8904 38 21.1904V3.19043C38 1.49043 36.6 0.19043 35 0.19043Z" fill="#F9F7E9"/>
<path d="M35 1.19043C36.1 1.19043 37 2.09043 37 3.19043V21.1904C37 22.2904 36.1 23.1904 35 23.1904H3C1.9 23.1904 1 22.2904 1 21.1904V3.19043C1 2.09043 1.9 1.19043 3 1.19043H35Z" fill="white"/>
<path d="M11.203 9.37871C10.9335 9.6916 10.5022 9.9377 10.071 9.90254C10.017 9.48066 10.2291 9.03066 10.477 8.75645C10.7466 8.43652 11.2174 8.20801 11.6019 8.19043C11.645 8.62637 11.4689 9.05879 11.203 9.37871ZM11.5947 9.9834C10.9694 9.94824 10.4339 10.3314 10.1392 10.3314C9.83736 10.3314 9.38455 10.001 8.88861 10.0115C8.24533 10.0221 7.64877 10.3771 7.32174 10.9431C6.64611 12.0787 7.14564 13.7556 7.7997 14.6802C8.11955 15.1373 8.50049 15.64 9.00361 15.6224C9.48158 15.6049 9.66845 15.3201 10.2435 15.3201C10.822 15.3201 10.991 15.6224 11.4941 15.6154C12.0152 15.6049 12.3422 15.1584 12.662 14.7013C13.025 14.181 13.176 13.6783 13.1831 13.6502C13.1724 13.6396 12.1769 13.267 12.1661 12.142C12.1553 11.1998 12.9531 10.7533 12.9891 10.7252C12.5399 10.0713 11.8391 10.001 11.5947 9.9834ZM15.2028 8.71074V15.5627H16.2917V13.2213H17.7975C19.1739 13.2213 20.137 12.2967 20.137 10.9607C20.137 9.62481 19.1883 8.71074 17.8335 8.71074H15.2028ZM16.2917 9.60723H17.546C18.4911 9.60723 19.0302 10.0994 19.0302 10.9642C19.0302 11.8291 18.4911 12.3283 17.5424 12.3283H16.2917V9.60723ZM22.1208 15.6154C22.8036 15.6154 23.4361 15.2779 23.7236 14.74H23.7452V15.5627H24.7514V12.1525C24.7514 11.1646 23.9428 10.5248 22.6994 10.5248C21.5458 10.5248 20.6905 11.1717 20.6581 12.0576H21.6392C21.7219 11.6357 22.1208 11.358 22.667 11.358C23.3319 11.358 23.7056 11.6603 23.7056 12.2193V12.599L22.3472 12.6799C21.0858 12.7537 20.403 13.2599 20.403 14.1388C20.4066 15.0248 21.111 15.6154 22.1208 15.6154ZM22.4155 14.8033C21.8369 14.8033 21.4667 14.5291 21.4667 14.1142C21.4667 13.6818 21.8225 13.4322 22.5017 13.3935L23.7092 13.3197V13.7064C23.7092 14.3463 23.1522 14.8033 22.4155 14.8033ZM26.0991 17.4259C27.1592 17.4259 27.6588 17.0287 28.0936 15.8299L30.0019 10.5916H28.895L27.6156 14.6381H27.5941L26.3147 10.5916H25.1791L27.0191 15.5802L26.9185 15.8826C26.7531 16.3959 26.4836 16.5963 26.002 16.5963C25.9158 16.5963 25.7505 16.5857 25.6822 16.5787V17.4013C25.7469 17.4154 26.0164 17.4259 26.0991 17.4259Z" fill="black"/>
</g>
</g>
</g>
</g>
</g>
<defs>
<clipPath id="clip0_278_2132">
<rect width="38" height="24" fill="white" transform="translate(0 0.19043)"/>
</clipPath>
<clipPath id="clip1_278_2132">
<rect width="38" height="24" fill="white" transform="translate(0 0.19043)"/>
</clipPath>
<clipPath id="clip2_278_2132">
<rect width="38" height="24" fill="white" transform="translate(0 0.19043)"/>
</clipPath>
<clipPath id="clip3_278_2132">
<rect width="38" height="24" fill="white" transform="translate(0 0.19043)"/>
</clipPath>
</defs>
</svg>
