<svg width="38" height="25" viewBox="0 0 38 25" fill="none" xmlns="http://www.w3.org/2000/svg">
<g clip-path="url(#clip0_278_2295)">
<g clip-path="url(#clip1_278_2295)">
<g clip-path="url(#clip2_278_2295)">
<mask id="mask0_278_2295" style="mask-type:luminance" maskUnits="userSpaceOnUse" x="0" y="0" width="38" height="25">
<path d="M38 0.19043H0V24.1904H38V0.19043Z" fill="white"/>
</mask>
<g mask="url(#mask0_278_2295)">
<path d="M35 0.19043H3C1.3 0.19043 0 1.49043 0 3.19043V21.1904C0 22.8904 1.4 24.1904 3 24.1904H35C36.7 24.1904 38 22.8904 38 21.1904V3.19043C38 1.49043 36.6 0.19043 35 0.19043Z" fill="#F9F7E9"/>
<path d="M35 1.19043C36.1 1.19043 37 2.09043 37 3.19043V21.1904C37 22.2904 36.1 23.1904 35 23.1904H3C1.9 23.1904 1 22.2904 1 21.1904V3.19043C1 2.09043 1.9 1.19043 3 1.19043H35Z" fill="white"/>
<path d="M23.8465 12.3542C24.3447 12.3651 24.8456 12.3322 25.3418 12.3713C25.8442 12.465 25.9653 13.2257 25.5189 13.4748C25.2144 13.6389 24.8525 13.5359 24.5223 13.5648H23.8465V12.3542ZM25.6298 10.984C25.7405 11.3746 25.3639 11.7253 24.9877 11.6715H23.8465C23.8546 11.3032 23.8309 10.9033 23.8581 10.5543C24.3153 10.5672 24.7766 10.5281 25.2311 10.5748C25.4264 10.6239 25.5898 10.7844 25.6298 10.984ZM28.376 5.19094C28.3973 5.93696 28.3791 6.72241 28.3852 7.48356C28.3838 10.5781 28.3882 13.6726 28.3828 16.7673C28.3627 17.9271 27.3349 18.9348 26.1832 18.958C25.0303 18.9627 23.8773 18.9587 22.7243 18.96V14.2817C23.9806 14.2752 25.2375 14.2948 26.4932 14.2719C27.0757 14.2353 27.7138 13.8509 27.7409 13.2098C27.8095 12.566 27.2025 12.1207 26.6262 12.0503C26.4047 12.0446 26.4111 11.9858 26.6262 11.9601C27.1759 11.8413 27.6075 11.2724 27.4458 10.7026C27.308 10.1034 26.6456 9.87145 26.0947 9.8726C24.9714 9.86497 23.8479 9.87154 22.7246 9.86932C22.7318 8.99593 22.7094 8.12161 22.7366 7.24886C22.8256 6.11003 23.8793 5.17086 25.0149 5.19124C26.1354 5.19107 27.2558 5.19098 28.376 5.19094Z" fill="url(#paint0_linear_278_2295)"/>
<path d="M10.0299 7.36703C10.0586 6.2091 11.0908 5.20962 12.241 5.1927C13.3896 5.18916 14.5384 5.19218 15.687 5.19116C15.6838 9.06534 15.6932 12.9399 15.6822 16.8139C15.638 17.9577 14.617 18.9382 13.4793 18.9584C12.3285 18.9626 11.1777 18.959 10.0269 18.9602V14.1241C11.1447 14.3882 12.3169 14.5006 13.4572 14.3254C14.1389 14.2158 14.8847 13.881 15.1155 13.1738C15.2853 12.5689 15.1897 11.9323 15.215 11.3114V9.86954H13.2414C13.2326 10.8231 13.2596 11.7784 13.2272 12.7309C13.174 13.3163 12.5942 13.6883 12.042 13.6684C11.3573 13.6757 10.0003 13.1722 10.0003 13.1722C9.99696 11.3855 10.0202 9.14778 10.0299 7.36703Z" fill="url(#paint1_linear_278_2295)"/>
<path d="M16.4231 10.4508C16.3192 10.4728 16.4022 10.097 16.3756 9.95441C16.3827 9.05285 16.3608 8.1503 16.3877 7.24937C16.4765 6.10573 17.5382 5.16422 18.6784 5.19099H22.036C22.0329 9.06517 22.0422 12.9397 22.0313 16.8137C21.987 17.9575 20.9659 18.9379 19.8282 18.9582C18.6774 18.9626 17.5265 18.9589 16.3756 18.96V13.6614C17.1616 14.3064 18.2299 14.4067 19.2091 14.4085C19.9473 14.4082 20.6812 14.2944 21.3981 14.1242V13.1535C20.5902 13.5561 19.6405 13.8119 18.7449 13.5805C18.1201 13.425 17.6666 12.8213 17.6767 12.1765C17.6044 11.506 17.9974 10.7982 18.6563 10.5989C19.4743 10.3427 20.3659 10.5386 21.1327 10.8716C21.297 10.9576 21.4637 11.0643 21.3981 10.7897V10.0267C20.1156 9.72162 18.7508 9.60934 17.4623 9.94128C17.0894 10.0465 16.726 10.2059 16.4231 10.4508Z" fill="url(#paint2_linear_278_2295)"/>
</g>
</g>
</g>
</g>
<defs>
<linearGradient id="paint0_linear_278_2295" x1="22.6857" y1="11.7811" x2="28.3495" y2="11.7811" gradientUnits="userSpaceOnUse">
<stop stop-color="#58B03A"/>
<stop offset="1" stop-color="#55B330"/>
</linearGradient>
<linearGradient id="paint1_linear_278_2295" x1="9.90646" y1="12.2075" x2="15.5942" y2="12.2075" gradientUnits="userSpaceOnUse">
<stop stop-color="#0F6EB6"/>
<stop offset="1" stop-color="#006DBA"/>
</linearGradient>
<linearGradient id="paint2_linear_278_2295" x1="16.3673" y1="11.9145" x2="22.035" y2="11.9145" gradientUnits="userSpaceOnUse">
<stop stop-color="#DE0D3D"/>
<stop offset="1" stop-color="#E30138"/>
</linearGradient>
<clipPath id="clip0_278_2295">
<rect width="38" height="24" fill="white" transform="translate(0 0.19043)"/>
</clipPath>
<clipPath id="clip1_278_2295">
<rect width="38" height="24" fill="white" transform="translate(0 0.19043)"/>
</clipPath>
<clipPath id="clip2_278_2295">
<rect width="38" height="24" fill="white" transform="translate(0 0.19043)"/>
</clipPath>
</defs>
</svg>
