<svg width="38" height="25" viewBox="0 0 38 25" fill="none" xmlns="http://www.w3.org/2000/svg">
<g clip-path="url(#clip0_278_2114)">
<g clip-path="url(#clip1_278_2114)">
<g clip-path="url(#clip2_278_2114)">
<mask id="mask0_278_2114" style="mask-type:luminance" maskUnits="userSpaceOnUse" x="0" y="0" width="38" height="25">
<path d="M38 0.19043H0V24.1904H38V0.19043Z" fill="white"/>
</mask>
<g mask="url(#mask0_278_2114)">
<path d="M35 0.19043H3C1.3 0.19043 0 1.49043 0 3.19043V21.1904C0 22.8904 1.4 24.1904 3 24.1904H35C36.7 24.1904 38 22.8904 38 21.1904V3.19043C38 1.49043 36.6 0.19043 35 0.19043Z" fill="#F9F7E9"/>
<path d="M35 1.19043C36.1 1.19043 37 2.09043 37 3.19043V21.1904C37 22.2904 36.1 23.1904 35 23.1904H3C1.9 23.1904 1 22.2904 1 21.1904V3.19043C1 2.09043 1.9 1.19043 3 1.19043H35Z" fill="white"/>
<path d="M27.198 10.2773H25.5086C25.4092 10.2773 25.3098 10.3766 25.2601 10.476L24.5645 14.8487C24.5645 14.9481 24.6142 14.9978 24.7136 14.9978H25.608C25.7073 14.9978 25.757 14.9481 25.757 14.8487L25.9558 13.6065C25.9558 13.5071 26.0552 13.4077 26.2042 13.4077H26.7508C27.8937 13.4077 28.5396 12.8611 28.6887 11.7679C28.7881 11.3207 28.6887 10.9232 28.49 10.6748C28.1918 10.4263 27.7446 10.2773 27.198 10.2773ZM27.3968 11.917C27.2974 12.5133 26.8502 12.5133 26.403 12.5133H26.1049L26.3036 11.3704C26.3036 11.3207 26.3533 11.271 26.4527 11.271H26.5521C26.8502 11.271 27.1483 11.271 27.2974 11.4698C27.3968 11.5195 27.3968 11.6686 27.3968 11.917Z" fill="#139AD6"/>
<path d="M15.0242 10.2773H13.3347C13.2354 10.2773 13.136 10.3766 13.0863 10.476L12.3906 14.8487C12.3906 14.9481 12.4403 14.9978 12.5397 14.9978H13.3347C13.4341 14.9978 13.5335 14.8984 13.5832 14.799L13.7819 13.6065C13.7819 13.5071 13.8813 13.4077 14.0304 13.4077H14.577C15.7198 13.4077 16.3658 12.8611 16.5149 11.7679C16.6142 11.3207 16.5149 10.9232 16.3161 10.6748C16.018 10.4263 15.6205 10.2773 15.0242 10.2773ZM15.2229 11.917C15.1236 12.5133 14.6764 12.5133 14.2291 12.5133H13.9807L14.1795 11.3704C14.1795 11.3207 14.2291 11.271 14.3285 11.271H14.4279C14.726 11.271 15.0242 11.271 15.1732 11.4698C15.2229 11.5195 15.2726 11.6686 15.2229 11.917Z" fill="#263B80"/>
<path d="M20.1424 11.8675H19.3473C19.2976 11.8675 19.1983 11.9172 19.1983 11.9669L19.1486 12.2153L19.0989 12.116C18.9001 11.8675 18.5523 11.7681 18.1548 11.7681C17.2604 11.7681 16.4653 12.4638 16.3163 13.4079C16.2169 13.9048 16.366 14.352 16.6144 14.6501C16.8629 14.9483 17.2107 15.0476 17.6579 15.0476C18.4032 15.0476 18.8007 14.6004 18.8007 14.6004L18.7511 14.8489C18.7511 14.9483 18.8007 14.998 18.9001 14.998H19.6455C19.7448 14.998 19.8442 14.8986 19.8939 14.7992L20.3411 12.0166C20.2914 11.9669 20.1921 11.8675 20.1424 11.8675ZM18.9995 13.4576C18.9001 13.9048 18.5523 14.2526 18.0554 14.2526C17.807 14.2526 17.6082 14.1532 17.5088 14.0539C17.4094 13.9048 17.3598 13.706 17.3598 13.4576C17.4094 13.0104 17.807 12.6626 18.2542 12.6626C18.5026 12.6626 18.6517 12.7619 18.8007 12.8613C18.9498 13.0104 18.9995 13.2588 18.9995 13.4576Z" fill="#263B80"/>
<path d="M32.2674 11.8675H31.4724C31.4227 11.8675 31.3233 11.9172 31.3233 11.9669L31.2736 12.2153L31.2239 12.116C31.0252 11.8675 30.6773 11.7681 30.2798 11.7681C29.3854 11.7681 28.5904 12.4638 28.4413 13.4079C28.3419 13.9048 28.491 14.352 28.7395 14.6501C28.9879 14.9483 29.3357 15.0476 29.7829 15.0476C30.5283 15.0476 30.9258 14.6004 30.9258 14.6004L30.8761 14.8489C30.8761 14.9483 30.9258 14.998 31.0252 14.998H31.7705C31.8699 14.998 31.9693 14.8986 32.019 14.7992L32.4662 12.0166C32.4165 11.9669 32.3668 11.8675 32.2674 11.8675ZM31.1245 13.4576C31.0252 13.9048 30.6773 14.2526 30.1804 14.2526C29.932 14.2526 29.7332 14.1532 29.6339 14.0539C29.5345 13.9048 29.4848 13.706 29.4848 13.4576C29.5345 13.0104 29.932 12.6626 30.3792 12.6626C30.6277 12.6626 30.7767 12.7619 30.9258 12.8613C31.1245 13.0104 31.1742 13.2588 31.1245 13.4576Z" fill="#139AD6"/>
<path d="M24.4667 11.8672H23.6219C23.5226 11.8672 23.4729 11.9169 23.4232 11.9666L22.33 13.6561L21.8331 12.066C21.7834 11.9666 21.7337 11.9169 21.5847 11.9169H20.7896C20.6903 11.9169 20.6406 12.0163 20.6406 12.1157L21.535 14.7492L20.6903 15.9418C20.6406 16.0411 20.6903 16.1902 20.7896 16.1902H21.5847C21.684 16.1902 21.7337 16.1405 21.7834 16.0908L24.5163 12.1654C24.6654 12.0163 24.566 11.8672 24.4667 11.8672Z" fill="#263B80"/>
<path d="M33.2113 10.4265L32.5156 14.8986C32.5156 14.9979 32.5653 15.0476 32.6647 15.0476H33.3603C33.4597 15.0476 33.5591 14.9483 33.6088 14.8489L34.3044 10.4762C34.3044 10.3768 34.2547 10.3271 34.1554 10.3271H33.3603C33.3106 10.2774 33.2609 10.3271 33.2113 10.4265Z" fill="#139AD6"/>
<path d="M8.71429 8.7867C8.36646 8.38919 7.7205 8.19043 6.82609 8.19043H4.34162C4.19255 8.19043 4.04348 8.3395 3.99379 8.48857L3 14.9979C3 15.1469 3.09938 15.2463 3.19876 15.2463H4.73913L5.13665 12.8115V12.9109C5.18634 12.7618 5.3354 12.6128 5.48447 12.6128H6.22981C7.67081 12.6128 8.76398 12.0165 9.1118 10.3767C9.1118 10.327 9.1118 10.2774 9.1118 10.2277C9.06211 10.2277 9.06211 10.2277 9.1118 10.2277C9.16149 9.58173 9.06211 9.18422 8.71429 8.7867Z" fill="#263B80"/>
<path d="M9.06189 10.2275C9.06189 10.2771 9.06189 10.3268 9.06189 10.3765C8.71406 12.066 7.6209 12.6125 6.1799 12.6125H5.43456C5.28549 12.6125 5.13642 12.7616 5.08673 12.9107L4.58984 15.9417C4.58984 16.0411 4.63953 16.1405 4.7886 16.1405H6.08052C6.22959 16.1405 6.37866 16.0411 6.37866 15.8921V15.8424L6.62711 14.302V14.2026C6.62711 14.0535 6.77618 13.9542 6.92524 13.9542H7.124C8.36624 13.9542 9.36003 13.4573 9.60847 11.9666C9.70785 11.3703 9.65816 10.8237 9.36003 10.4759C9.31034 10.3765 9.21096 10.2771 9.06189 10.2275Z" fill="#139AD6"/>
<path d="M8.71436 10.0788C8.66467 10.0788 8.61498 10.0291 8.56529 10.0291C8.5156 10.0291 8.46591 10.0291 8.41622 9.97938C8.21746 9.92969 8.0187 9.92969 7.77026 9.92969H5.83237C5.78268 9.92969 5.73299 9.92969 5.6833 9.97938C5.58392 10.0291 5.53423 10.1284 5.53423 10.2279L5.13672 12.8117V12.9111C5.18641 12.762 5.33547 12.613 5.48454 12.613H6.22988C7.67088 12.613 8.76405 12.0167 9.11187 10.3769C9.11187 10.3272 9.11187 10.2776 9.16156 10.2279C9.06218 10.1781 9.01249 10.1284 8.91311 10.1284C8.76405 10.0788 8.76405 10.0788 8.71436 10.0788Z" fill="#232C65"/>
</g>
</g>
</g>
</g>
<defs>
<clipPath id="clip0_278_2114">
<rect width="38" height="24" fill="white" transform="translate(0 0.19043)"/>
</clipPath>
<clipPath id="clip1_278_2114">
<rect width="38" height="24" fill="white" transform="translate(0 0.19043)"/>
</clipPath>
<clipPath id="clip2_278_2114">
<rect width="38" height="24" fill="white" transform="translate(0 0.19043)"/>
</clipPath>
</defs>
</svg>
