<svg width="113" height="28" viewBox="0 0 113 28" fill="none" xmlns="http://www.w3.org/2000/svg">
<g clip-path="url(#clip0_863_421)">
<path d="M29.7004 10.1748H41.1002V12.2701H36.6119V24.0814H34.1515V12.2701H29.6816L29.7004 10.1748ZM40.6121 14.013H42.7158V15.9599H42.7531C42.8284 15.6818 42.9601 15.4222 43.1475 15.1626C43.3355 14.903 43.5609 14.662 43.8426 14.458C44.1053 14.2355 44.406 14.0686 44.7441 13.9388C45.0631 13.8091 45.4012 13.7349 45.7392 13.7349C46.0026 13.7349 46.19 13.7534 46.2843 13.7534C46.378 13.7719 46.4907 13.7905 46.5844 13.7905V15.9228C46.4343 15.8857 46.2653 15.8672 46.0963 15.8487C45.9272 15.8301 45.7772 15.8116 45.6082 15.8116C45.2321 15.8116 44.8757 15.8857 44.5377 16.0341C44.1996 16.1824 43.9173 16.4049 43.6546 16.6831C43.4102 16.9797 43.2038 17.332 43.0538 17.7585C42.9031 18.1849 42.8284 18.6856 42.8284 19.2419V24.0257H40.5746L40.6121 14.013ZM56.9329 24.0814H54.6982V22.6721H54.6602C54.3785 23.1913 53.9658 23.5807 53.4207 23.8959C52.8763 24.2111 52.3128 24.3595 51.7494 24.3595C50.4156 24.3595 49.4394 24.0442 48.838 23.3767C48.2373 22.7277 47.9366 21.7265 47.9366 20.41V14.013H50.1902V20.1875C50.1902 21.0776 50.3593 21.7079 50.7163 22.0602C51.0543 22.4311 51.5431 22.6165 52.1622 22.6165C52.6319 22.6165 53.0263 22.5424 53.346 22.394C53.6651 22.2457 53.9278 22.0602 54.1158 21.8192C54.3222 21.5782 54.4538 21.2815 54.5475 20.9477C54.6418 20.614 54.6792 20.2431 54.6792 19.8537V14.013H56.9329V24.0814ZM60.7458 20.855C60.8204 21.504 61.0648 21.949 61.4966 22.2271C61.9283 22.4867 62.4544 22.6165 63.0558 22.6165C63.2621 22.6165 63.5065 22.598 63.7692 22.5609C64.0319 22.5238 64.2953 22.4682 64.5206 22.3755C64.7644 22.2827 64.9524 22.153 65.1024 21.9676C65.2531 21.7821 65.3278 21.5596 65.3094 21.2815C65.2904 21.0034 65.1968 20.7623 64.9897 20.5769C64.7834 20.3915 64.539 20.2617 64.2389 20.1319C63.9382 20.0206 63.5812 19.9279 63.1868 19.8537C62.7924 19.7796 62.398 19.6869 61.9853 19.5942C61.5719 19.5014 61.1585 19.3902 60.7641 19.2604C60.3697 19.1306 60.0317 18.9637 59.7126 18.7227C59.4119 18.5002 59.1492 18.2221 58.9802 17.8697C58.7921 17.5174 58.6985 17.1095 58.6985 16.5904C58.6985 16.0341 58.8295 15.5891 59.1112 15.2182C59.3746 14.8474 59.731 14.5507 60.1444 14.3282C60.5577 14.1057 61.0268 13.9388 61.5339 13.8461C62.041 13.7534 62.5297 13.7163 62.9804 13.7163C63.5065 13.7163 64.0136 13.7719 64.4827 13.8832C64.9524 13.9944 65.4031 14.1613 65.7785 14.4209C66.1729 14.662 66.4926 14.9957 66.7363 15.3851C66.9997 15.7745 67.1497 16.2566 67.225 16.8129H64.8771C64.7644 16.2751 64.5206 15.9228 64.1446 15.7374C63.7502 15.552 63.3185 15.4592 62.8114 15.4592C62.6614 15.4592 62.4544 15.4778 62.248 15.4964C62.0226 15.5334 61.8346 15.5706 61.6282 15.6447C61.4402 15.7189 61.2712 15.8301 61.1395 15.9599C61.0085 16.0897 60.9331 16.2751 60.9331 16.4976C60.9331 16.7757 61.0268 16.9797 61.2148 17.1466C61.4029 17.3135 61.6472 17.4433 61.9663 17.5731C62.267 17.6843 62.6234 17.7771 63.0178 17.8512C63.4122 17.9254 63.8256 18.0181 64.2389 18.1108C64.6517 18.2035 65.0461 18.3147 65.4405 18.4446C65.8349 18.5744 66.1919 18.7412 66.4926 18.9822C66.7927 19.2048 67.056 19.4829 67.2434 19.8167C67.4314 20.1504 67.5251 20.5769 67.5251 21.059C67.5251 21.6523 67.3941 22.153 67.1124 22.5794C66.8307 22.9874 66.4736 23.3397 66.0419 23.5992C65.6095 23.8589 65.1024 24.0442 64.577 24.1741C64.0319 24.2853 63.5065 24.3595 62.9804 24.3595C62.3417 24.3595 61.7409 24.2853 61.1965 24.137C60.6514 23.9886 60.1633 23.7661 59.769 23.488C59.3746 23.1913 59.0549 22.8391 58.8295 22.394C58.6041 21.9676 58.4731 21.4484 58.4541 20.8365H60.7268V20.855H60.7458ZM68.1639 14.013H69.8731V10.9721H72.1268V13.9944H74.1551V15.6447H72.1268V21.0219C72.1268 21.2629 72.1458 21.4484 72.1641 21.6338C72.1831 21.8007 72.2395 21.949 72.2958 22.0602C72.3711 22.1715 72.4838 22.2642 72.6149 22.3199C72.7655 22.3755 72.9529 22.4126 73.2163 22.4126C73.3663 22.4126 73.5353 22.4126 73.6854 22.394C73.836 22.3755 74.0051 22.3569 74.1551 22.3199V24.0442C73.9107 24.0814 73.667 24.0999 73.4226 24.1184C73.1783 24.1555 72.9529 24.1555 72.6902 24.1555C72.0894 24.1555 71.6197 24.0999 71.2627 23.9886C70.9063 23.8774 70.6245 23.7105 70.4175 23.5066C70.2112 23.2841 70.0795 23.0244 70.0048 22.7092C69.9295 22.394 69.8915 22.0046 69.8731 21.5967V15.6632H68.1639V13.9759V14.013ZM75.7327 14.013H77.8546V15.3851H77.8926C78.2117 14.7917 78.6441 14.3838 79.2075 14.1242C79.7709 13.8647 80.3717 13.7349 81.0478 13.7349C81.8555 13.7349 82.55 13.8647 83.1514 14.1613C83.7522 14.4394 84.2403 14.8103 84.6346 15.3109C85.029 15.7931 85.3297 16.3678 85.5178 17.0168C85.7051 17.6658 85.8178 18.3704 85.8178 19.0935C85.8178 19.7796 85.7241 20.4286 85.5551 21.059C85.3671 21.6894 85.1044 22.2642 84.7473 22.7463C84.3909 23.2284 83.9402 23.6178 83.3768 23.9145C82.8134 24.2111 82.1746 24.3595 81.4232 24.3595C81.1041 24.3595 80.7661 24.3224 80.4464 24.2667C80.1273 24.2111 79.8082 24.1184 79.5075 23.9886C79.2075 23.8589 78.9251 23.6919 78.6814 23.488C78.4181 23.2841 78.2117 23.043 78.0427 22.7834H78.0053V27.8083H75.7516V14.013H75.7327ZM83.6021 19.0564C83.6021 18.6114 83.5458 18.1664 83.4141 17.7399C83.3014 17.3135 83.1134 16.9426 82.8697 16.6089C82.6253 16.2751 82.3246 16.0156 81.9866 15.8116C81.6302 15.6076 81.2168 15.5149 80.7661 15.5149C79.8266 15.5149 79.1132 15.8301 78.6251 16.4791C78.1553 17.1281 77.911 17.9996 77.911 19.075C77.911 19.5942 77.9673 20.0577 78.099 20.4842C78.2307 20.9106 78.3997 21.2815 78.6624 21.5967C78.9068 21.9119 79.2075 22.153 79.5639 22.3384C79.9209 22.5238 80.3153 22.6165 80.7851 22.6165C81.3105 22.6165 81.7239 22.5052 82.0809 22.3013C82.4373 22.0974 82.719 21.8192 82.9634 21.504C83.1888 21.1702 83.3578 20.7994 83.4515 20.3729C83.5458 19.9279 83.6021 19.5014 83.6021 19.0564ZM87.5644 10.1748H89.8187V12.2701H87.5644V10.1748ZM87.5644 14.013H89.8187V24.0814H87.5644V14.013ZM91.828 10.1748H94.0817V24.0814H91.828V10.1748ZM100.955 24.3595C100.148 24.3595 99.4158 24.2297 98.7771 23.9516C98.1383 23.6734 97.6129 23.3211 97.1621 22.8576C96.7298 22.394 96.3917 21.8192 96.1663 21.1702C95.941 20.5212 95.8093 19.7981 95.8093 19.0379C95.8093 18.2777 95.922 17.5731 96.1663 16.9241C96.3917 16.2751 96.7298 15.7189 97.1621 15.2367C97.5939 14.7732 98.1383 14.4024 98.7771 14.1428C99.4158 13.8832 100.148 13.7349 100.955 13.7349C101.763 13.7349 102.496 13.8647 103.134 14.1428C103.772 14.4024 104.299 14.7732 104.749 15.2367C105.181 15.7003 105.519 16.2751 105.744 16.9241C105.97 17.5731 106.101 18.2777 106.101 19.0379C106.101 19.8167 105.989 20.5212 105.744 21.1702C105.501 21.8192 105.181 22.3755 104.749 22.8576C104.318 23.3211 103.772 23.6919 103.134 23.9516C102.496 24.2111 101.782 24.3595 100.955 24.3595ZM100.955 22.598C101.444 22.598 101.895 22.4867 102.251 22.2827C102.627 22.0788 102.909 21.8007 103.153 21.4669C103.397 21.1332 103.566 20.7437 103.679 20.3359C103.791 19.9094 103.848 19.4829 103.848 19.0379C103.848 18.6114 103.791 18.1849 103.679 17.7585C103.566 17.332 103.397 16.9612 103.153 16.6274C102.909 16.2937 102.608 16.0341 102.251 15.8301C101.876 15.6262 101.444 15.5149 100.955 15.5149C100.467 15.5149 100.017 15.6262 99.6595 15.8301C99.2841 16.0341 99.0024 16.3122 98.7581 16.6274C98.5143 16.9612 98.3447 17.332 98.232 17.7585C98.1199 18.1849 98.0636 18.6114 98.0636 19.0379C98.0636 19.4829 98.1199 19.9094 98.232 20.3359C98.3447 20.7623 98.5143 21.1332 98.7581 21.4669C99.0024 21.8007 99.3031 22.0788 99.6595 22.2827C100.036 22.5052 100.467 22.598 100.955 22.598ZM106.778 14.013H108.487V10.9721H110.74V13.9944H112.769V15.6447H110.74V21.0219C110.74 21.2629 110.759 21.4484 110.778 21.6338C110.797 21.8007 110.853 21.949 110.91 22.0602C110.985 22.1715 111.098 22.2642 111.229 22.3199C111.379 22.3755 111.567 22.4126 111.83 22.4126C111.98 22.4126 112.149 22.4126 112.299 22.394C112.45 22.3755 112.619 22.3569 112.769 22.3199V24.0442C112.524 24.0814 112.281 24.0999 112.036 24.1184C111.792 24.1555 111.567 24.1555 111.304 24.1555C110.703 24.1555 110.233 24.0999 109.876 23.9886C109.52 23.8774 109.238 23.7105 109.031 23.5066C108.825 23.2841 108.693 23.0244 108.618 22.7092C108.543 22.394 108.506 22.0046 108.487 21.5967V15.6632H106.778V13.9759V14.013Z" fill="#F6F6F6"/>
<path d="M27.0703 10.1741H16.7596L13.5856 0.495117L10.3928 10.1741L0.0820312 10.1556L8.4208 16.1446L5.22799 25.8236L13.5668 19.8345L21.9055 25.8236L18.7315 16.1446L27.0703 10.1741Z" fill="#00B67A"/>
<path d="M19.4456 18.3325L18.7319 16.1445L13.5859 19.8344L19.4456 18.3325Z" fill="#005128"/>
</g>
<defs>
<clipPath id="clip0_863_421">
<rect width="113" height="28" fill="white"/>
</clipPath>
</defs>
</svg>
