<svg width="38" height="25" viewBox="0 0 38 25" fill="none" xmlns="http://www.w3.org/2000/svg">
<g clip-path="url(#clip0_278_2311)">
<g clip-path="url(#clip1_278_2311)">
<g clip-path="url(#clip2_278_2311)">
<mask id="mask0_278_2311" style="mask-type:luminance" maskUnits="userSpaceOnUse" x="0" y="0" width="38" height="25">
<path d="M38 0.19043H0V24.1904H38V0.19043Z" fill="white"/>
</mask>
<g mask="url(#mask0_278_2311)">
<path d="M35 0.19043H3C1.3 0.19043 0 1.49043 0 3.19043V21.1904C0 22.8904 1.4 24.1904 3 24.1904H35C36.7 24.1904 38 22.8904 38 21.1904V3.19043C38 1.49043 36.6 0.19043 35 0.19043Z" fill="#F9F7E9"/>
<path d="M35 1.19043C36.1 1.19043 37 2.09043 37 3.19043V21.1904C37 22.2904 36.1 23.1904 35 23.1904H3C1.9 23.1904 1 22.2904 1 21.1904V3.19043C1 2.09043 1.9 1.19043 3 1.19043H35Z" fill="white"/>
<path fill-rule="evenodd" clip-rule="evenodd" d="M28.8829 4.19202L23.3726 4.19043H23.3712C23.3669 4.19043 23.3627 4.19128 23.3586 4.19128C22.6016 4.21724 21.6588 4.89694 21.4871 5.73507L18.8812 18.6434C18.7095 19.4894 19.1766 20.1777 19.9281 20.1904H25.7169C26.457 20.1494 27.1761 19.4775 27.3449 18.6489L29.9508 5.74048C30.1253 4.88592 29.6469 4.19202 28.8829 4.19202Z" fill="#22ABBB"/>
<path fill-rule="evenodd" clip-rule="evenodd" d="M19.2787 18.6436L21.9289 5.73651C22.1035 4.89846 23.0624 4.21883 23.8322 4.19287L21.6041 4.19128L17.5896 4.19043C16.8176 4.20781 15.8463 4.89221 15.6717 5.73651L13.0207 18.6436C12.8454 19.4894 13.3212 20.1777 14.085 20.1904H20.3434C19.5791 20.1777 19.104 19.4894 19.2787 18.6436Z" fill="#227FBB"/>
<path fill-rule="evenodd" clip-rule="evenodd" d="M13.1521 18.6437L15.7764 5.73785C15.9493 4.89363 16.9108 4.20929 17.6751 4.19191L12.584 4.19043C11.8155 4.19043 10.8301 4.88261 10.6545 5.73785L8.03012 18.6437C8.01415 18.7225 8.00529 18.7997 8 18.8752V19.1146C8.05137 19.7312 8.47491 20.1801 9.08373 20.1904H14.2057C13.4496 20.1777 12.9786 19.4895 13.1521 18.6437Z" fill="#E94B35"/>
<path fill-rule="evenodd" clip-rule="evenodd" d="M17.2917 13.4926H17.3925C17.4851 13.4926 17.5474 13.4546 17.5766 13.3794L17.8384 12.9004H18.5395L18.3933 13.2154H19.2339L19.1273 13.6981H18.127C18.0118 13.91 17.87 14.0096 17.6994 13.9978H17.1784L17.2917 13.4926ZM17.1466 14.2184H18.8602L18.751 14.6467H18.0618L17.9566 15.0601H18.6273L18.518 15.4883H17.8474L17.6916 16.0992C17.653 16.2013 17.7038 16.2472 17.843 16.2368H18.3895L18.2882 16.6348H17.2389C17.04 16.6348 16.9718 16.5127 17.0342 16.2679L17.2333 15.4883H16.8047L16.9136 15.0601H17.3423L17.4474 14.6467H17.0376L17.1466 14.2184ZM19.8463 12.9109L19.82 13.1813C19.82 13.1813 20.1347 12.9004 20.4204 12.9004H21.4763L21.0725 14.6387C21.039 14.8375 20.8954 14.9363 20.6418 14.9363H19.445L19.1647 16.1569C19.1485 16.2223 19.1714 16.2559 19.2317 16.2559H19.4672L19.3807 16.6348H18.782C18.5522 16.6348 18.4566 16.5526 18.4945 16.3875L19.2867 12.9109H19.8463ZM20.7288 13.3397H19.7274L19.6077 13.7791C19.6077 13.7791 19.7744 13.6529 20.0531 13.6483C20.331 13.6438 20.6483 13.6483 20.6483 13.6483L20.7288 13.3397ZM20.3545 14.4367C20.4309 14.4438 20.4736 14.4231 20.4788 14.3743L20.542 14.2184H19.5075L19.4208 14.4367H20.3545ZM19.6488 14.8774H20.1859L20.1759 15.1849H20.3189C20.3912 15.1849 20.427 15.1543 20.427 15.0939L20.4693 14.895H20.9157L20.8561 15.1849C20.8057 15.4267 20.672 15.5529 20.4548 15.5652H20.1687L20.1673 16.0908C20.1621 16.1749 20.2196 16.2179 20.3381 16.2179H20.6071L20.5203 16.634H19.8753C19.6945 16.6454 19.6058 16.5314 19.6077 16.2897L19.6488 14.8774Z" fill="white"/>
<path fill-rule="evenodd" clip-rule="evenodd" d="M13.1903 10.5103C13.1173 10.9244 12.9479 11.2425 12.6852 11.4683C12.4249 11.6904 12.0892 11.8017 11.6781 11.8017C11.2913 11.8017 11.0077 11.688 10.8267 11.4599C10.7012 11.2978 10.6387 11.0919 10.6387 10.843C10.6387 10.74 10.6494 10.6294 10.6707 10.5103L11.1086 8.06738H11.7701L11.3381 10.4827C11.3248 10.5495 11.3195 10.6118 11.3202 10.6679C11.3195 10.7916 11.346 10.8929 11.3998 10.972C11.4782 11.0896 11.6054 11.148 11.7824 11.148C11.9859 11.148 12.1536 11.0904 12.2838 10.9743C12.4139 10.8591 12.4989 10.6955 12.5371 10.4827L12.9705 8.06738H13.6286L13.1903 10.5103Z" fill="white"/>
<path fill-rule="evenodd" clip-rule="evenodd" d="M16.0953 9.60523H16.6198L16.2089 11.8019H15.6855L16.0953 9.60523ZM16.3343 8.72656H16.8067L16.7184 9.38557H16.2461L16.3343 8.72656Z" fill="white"/>
<path fill-rule="evenodd" clip-rule="evenodd" d="M16.8178 11.7879C16.6849 11.63 16.6178 11.4171 16.6172 11.1468C16.6172 11.1006 16.6194 11.048 16.6244 10.9905C16.6293 10.9322 16.6355 10.8755 16.6442 10.8229C16.7045 10.4498 16.8328 10.1535 17.0305 9.93494C17.2279 9.71558 17.466 9.60547 17.7449 9.60547C17.9732 9.60547 18.1543 9.68482 18.2869 9.84348C18.4194 10.003 18.4858 10.2182 18.4858 10.4919C18.4858 10.5388 18.4829 10.593 18.478 10.6513C18.4722 10.7104 18.4651 10.7671 18.4568 10.8229C18.3979 11.1904 18.27 11.4835 18.0722 11.6981C17.8745 11.9142 17.637 12.0218 17.3602 12.0218C17.1309 12.0218 16.9504 11.9441 16.8178 11.7879ZM17.7971 11.3014C17.8909 11.188 17.958 11.016 17.9989 10.787C18.0051 10.7512 18.0105 10.7139 18.0139 10.6766C18.0173 10.6401 18.0187 10.6058 18.0187 10.5746C18.0187 10.4414 17.9883 10.338 17.9273 10.2649C17.8666 10.1911 17.7804 10.1546 17.6689 10.1546C17.5216 10.1546 17.4016 10.2124 17.3076 10.3281C17.2127 10.4438 17.1455 10.6188 17.1032 10.8516C17.0975 10.8874 17.0927 10.9232 17.0883 10.9582C17.0849 10.9939 17.0839 11.0274 17.0845 11.0578C17.0845 11.1903 17.1149 11.2923 17.1759 11.3645C17.2365 11.4368 17.3224 11.4726 17.4354 11.4726C17.5833 11.4726 17.7033 11.4155 17.7971 11.3014Z" fill="white"/>
<path fill-rule="evenodd" clip-rule="evenodd" d="M22.0031 13.4294L22.1294 12.9004H22.7682L22.7407 13.0945C22.7407 13.0945 23.0671 12.9004 23.3022 12.9004H24.092L23.9665 13.4294H23.8422L23.2464 15.9243H23.3707L23.2524 16.4198H23.1282L23.0765 16.6348H22.4579L22.5095 16.4198H21.2891L21.408 15.9243H21.5303L22.1266 13.4294H22.0031ZM22.7395 13.5594L22.5971 14.2184C22.5971 14.2184 22.8407 14.0945 23.0507 14.0594C23.0971 13.8292 23.1577 13.5594 23.1577 13.5594H22.7395ZM22.3658 14.6578L22.2234 15.3168C22.2234 15.3168 22.4925 15.1485 22.6772 15.1343C22.7306 14.8796 22.784 14.6578 22.784 14.6578H22.3658ZM22.6697 15.9758L22.784 15.3168H22.3383L22.2234 15.9758H22.6697ZM24.092 12.9004H24.7657L24.7943 13.1862C24.7898 13.259 24.8274 13.2938 24.9073 13.2938H25.0264L24.9059 13.7781H24.4108C24.2217 13.7893 24.1245 13.7062 24.1154 13.5268L24.092 12.9004ZM24.0156 13.9987H25.9607L25.8465 14.4485H25.2272L25.1211 14.8668H25.7397L25.6249 15.3158H24.9358L24.7799 15.579H25.1172L25.1951 16.106C25.2044 16.1584 25.246 16.1839 25.3172 16.1839H25.422L25.3119 16.6179H24.9411C24.749 16.6285 24.6497 16.5565 24.6416 16.4013L24.5522 15.9201L24.2453 16.4321C24.1727 16.5767 24.0612 16.6442 23.9108 16.6337H23.3446L23.4547 16.1996H23.6314C23.704 16.1996 23.7643 16.1636 23.8187 16.0909L24.2991 15.3158H23.6797L23.7945 14.8668H24.4662L24.5731 14.4485H23.9007L24.0156 13.9987Z" fill="white"/>
<path fill-rule="evenodd" clip-rule="evenodd" d="M13.8088 9.65979H14.2617L14.2099 9.96907L14.2749 9.88082C14.4217 9.69678 14.6 9.60547 14.8106 9.60547C15.0012 9.60547 15.1386 9.67038 15.2249 9.80085C15.3099 9.93137 15.3331 10.1117 15.2929 10.3432L15.0433 11.8021H14.5778L14.8032 10.4797C14.8264 10.3432 14.82 10.2414 14.7842 10.1757C14.7488 10.1101 14.6812 10.0777 14.5836 10.0777C14.4639 10.0777 14.3631 10.1214 14.281 10.2082C14.1986 10.2957 14.1442 10.4171 14.1175 10.5718L13.9098 11.8021H13.4434L13.8088 9.65979Z" fill="white"/>
<path fill-rule="evenodd" clip-rule="evenodd" d="M19.2247 9.65979H19.6781L19.6266 9.96907L19.6909 9.88082C19.8379 9.69678 20.0169 9.60547 20.2268 9.60547C20.4174 9.60547 20.5552 9.67038 20.6407 9.80085C20.7252 9.93137 20.7497 10.1117 20.7084 10.3432L20.4598 11.8021H19.9936L20.2191 10.4797C20.2422 10.3432 20.2358 10.2414 20.2004 10.1757C20.1636 10.1101 20.0973 10.0777 20.0001 10.0777C19.8803 10.0777 19.7799 10.1214 19.6968 10.2082C19.6143 10.2957 19.5597 10.4171 19.5339 10.5718L19.3253 11.8021H18.8594L19.2247 9.65979Z" fill="white"/>
<path fill-rule="evenodd" clip-rule="evenodd" d="M21.5433 8.06738H22.9054C23.1673 8.06738 23.3699 8.13968 23.5091 8.28168C23.6477 8.42542 23.7171 8.63163 23.7171 8.90033V8.90841C23.7171 8.95953 23.7143 9.0172 23.7104 9.07968C23.7037 9.14139 23.695 9.20387 23.6838 9.26885C23.6238 9.62444 23.4844 9.91021 23.2693 10.127C23.0533 10.3429 22.7975 10.4517 22.5029 10.4517H21.7725L21.5466 11.8017H20.9141L21.5433 8.06738ZM21.8485 9.93455H22.5192C22.694 9.93455 22.8326 9.88074 22.9338 9.7743C23.0341 9.66683 23.1005 9.50272 23.1374 9.27998C23.1432 9.23884 23.1469 9.20177 23.1514 9.16759C23.1536 9.13538 23.1565 9.10305 23.1565 9.07189C23.1565 8.91257 23.1138 8.79729 23.0282 8.72499C22.9426 8.65164 22.8084 8.61655 22.6224 8.61655H22.0528L21.8485 9.93455Z" fill="white"/>
<path fill-rule="evenodd" clip-rule="evenodd" d="M26.5532 12.2262C26.3577 12.7197 26.1714 13.0074 26.062 13.1412C25.9524 13.2736 25.7355 13.5814 25.2129 13.5582L25.2579 13.1815C25.6976 13.0206 25.9355 12.2957 26.071 11.9748L25.9094 9.61089L26.2496 9.60547H26.535L26.5657 11.0883L27.1006 9.60547H27.6421L26.5532 12.2262Z" fill="white"/>
<path fill-rule="evenodd" clip-rule="evenodd" d="M24.8955 9.8855L24.6808 10.0702C24.4565 9.85057 24.2518 9.71469 23.8566 9.94408C23.3182 10.2564 22.8683 12.6524 24.3506 11.8632L24.4351 11.9885L25.0183 12.0072L25.4012 9.83017L24.8955 9.8855ZM24.6038 11.0446C24.5017 11.402 24.2736 11.6383 24.0949 11.5711C23.9163 11.5055 23.8525 11.1606 23.956 10.8024C24.058 10.4441 24.2877 10.2087 24.4649 10.276C24.6435 10.3416 24.7079 10.6863 24.6038 11.0446Z" fill="white"/>
</g>
</g>
</g>
</g>
<defs>
<clipPath id="clip0_278_2311">
<rect width="38" height="24" fill="white" transform="translate(0 0.19043)"/>
</clipPath>
<clipPath id="clip1_278_2311">
<rect width="38" height="24" fill="white" transform="translate(0 0.19043)"/>
</clipPath>
<clipPath id="clip2_278_2311">
<rect width="38" height="24" fill="white" transform="translate(0 0.19043)"/>
</clipPath>
</defs>
</svg>
