<svg width="80" height="80" viewBox="0 0 80 80" fill="none" xmlns="http://www.w3.org/2000/svg">
<rect width="80" height="80" rx="40" fill="white" fill-opacity="0.05"/>
<rect x="0.5" y="0.5" width="79" height="79" rx="39.5" stroke="white" stroke-opacity="0.1"/>
<path d="M37 24C39.1875 24 41 25.8125 41 28V51.5C41 54 38.9375 56 36.5 56C34.5 56 32.8125 54.75 32.25 52.9375C32 53 31.75 53 31.5 53C29 53 27 51 27 48.5C27 48.25 27 47.9375 27.0625 47.625C25.25 46.875 24 45.125 24 43C24 41.1875 25 39.5625 26.5 38.6875C26.1875 38.0625 26 37.3125 26 36.5C26 34.4375 27.25 32.625 29.0625 31.875C29 31.625 29 31.3125 29 31C29 28.8125 30.75 27 33 27C33 27 33.0625 27.0625 33.125 27.0625C33.5625 25.3125 35.125 24 37 24ZM60 43C60 45.125 58.6875 46.875 56.875 47.625C56.9375 47.9375 57 48.25 57 48.5C57 51 54.9375 53 52.5 53C52.1875 53 51.9375 53 51.75 52.9375C51.125 54.75 49.4375 56 47.5 56C45 56 43 54 43 51.5V28C43 25.8125 44.75 24 47 24C48.8125 24 50.375 25.3125 50.8125 27.0625C50.875 27.0625 50.9375 27 51 27C53.1875 27 55 28.8125 55 31C55 31.3125 54.9375 31.625 54.875 31.875C56.6875 32.625 58 34.4375 58 36.5C58 37.3125 57.75 38.0625 57.4375 38.6875C58.9375 39.5625 60 41.1875 60 43Z" fill="white" fill-opacity="0.7"/>
</svg>
