<svg width="244" height="53" viewBox="0 0 244 53" fill="none" xmlns="http://www.w3.org/2000/svg">
<path fill-rule="evenodd" clip-rule="evenodd" d="M94.2199 18.3184C88.4239 18.4058 81.3881 19.3563 77.0857 20.5039C71.7017 21.9349 67.5798 24.0817 65.0236 26.5186C63.1919 28.2646 62.1422 30.1754 61.9189 32.097C61.6902 34.0663 62.3098 36.073 63.9401 37.9728C66.1669 40.5678 70.384 43.0059 76.9599 44.8186C81.6008 46.1001 86.5277 47.2594 92.9073 47.3332L92.9301 45.3995C86.7478 45.328 81.9753 44.1968 77.4774 42.9551C72.3884 41.5523 68.7968 39.7934 66.5473 37.8448C64.5155 36.0847 63.6279 34.1998 63.8465 32.3195C64.0235 30.7925 64.9096 29.303 66.3647 27.9157C68.7385 25.6529 72.5862 23.7008 77.5866 22.3721C81.7712 21.2557 88.6135 20.3364 94.2489 20.2521L94.2199 18.3184ZM217.593 43.3783L217.733 19.3184L219.674 19.3293L219.566 37.7952C220.46 35.977 221.478 34.5808 222.553 33.5682C224.741 31.5068 227.186 30.9533 229.459 31.5923C231.223 32.088 232.904 33.3282 234.266 35.2381C236.183 37.926 237.488 41.9762 237.488 47.0319H235.547C235.547 42.4617 234.417 38.7879 232.684 36.358C231.613 34.8559 230.32 33.843 228.932 33.4531C227.265 32.9847 225.491 33.4605 223.886 34.973C222.125 36.6328 220.588 39.4651 219.532 43.623L219.513 46.8589L217.572 46.848L217.592 43.4251L217.581 43.4224L217.593 43.3783ZM213.836 19.1673V21.1011H197.977V46.8894H196.037V21.1011H179.165V19.1673H213.836ZM136.861 46.7305C136.861 38.0786 133.881 29.5828 129.096 24.0501C125.812 20.2521 121.678 17.8406 117.074 17.62C112.593 17.4065 108.28 19.7224 104.745 23.5973C99.6168 29.2182 96.1216 38.1254 96.1216 46.8535H98.0621C98.0621 38.6161 101.341 30.2027 106.18 24.8979C109.29 21.4895 113.04 19.3637 116.981 19.5514C121.068 19.747 124.71 21.9403 127.626 25.3125C132.142 30.5345 134.92 38.5646 134.92 46.7305H136.861ZM154.911 30.9303C158.682 30.3393 164.45 29.6582 167.615 28.8162C169.66 28.2713 171.103 27.7143 172.05 27.1444C172.707 26.7497 173.103 26.4273 173.157 26.0409C173.182 25.8605 173.084 25.6962 172.952 25.526C172.794 25.3219 172.577 25.1267 172.319 24.935C171.133 24.0556 169.166 23.3163 167.09 22.7901C159.513 20.8626 148.539 20.546 138.805 20.1682L138.88 18.236C148.754 18.6193 159.884 18.9616 167.57 20.9165C170.35 21.6214 172.93 22.7304 174.148 23.9592C174.881 24.6981 175.191 25.5069 175.079 26.3083C174.985 26.9765 174.583 27.6971 173.677 28.381C172.655 29.1523 170.882 29.947 168.116 30.6844C164.643 31.6083 158.073 32.3492 154.341 32.9819L172.418 45.1633L171.331 46.7653L153.045 34.443L151.393 33.117C147.171 33.2848 142.685 33.4819 138.631 33.6814L138.536 31.75C142.601 31.5501 147.102 31.3522 151.34 31.184C152.512 31.1415 153.787 30.9767 154.911 30.9303ZM70.7589 34.0979H89.6253V32.1642H70.7589V34.0979ZM107.12 34.0979H125.814V32.1642H107.12V34.0979Z" fill="#13993C"/>
<path fill-rule="evenodd" clip-rule="evenodd" d="M28.3815 17.1634C28.583 16.4978 31.8768 16.8855 35.7384 18.0297C39.5999 19.1736 42.5672 20.6406 42.3656 21.3064C40.4333 20.4473 38.021 19.5773 35.4964 18.829C32.9708 18.0808 30.472 17.4957 28.3809 17.1631L28.3815 17.1634Z" fill="url(#paint0_linear_507_2289)"/>
<path fill-rule="evenodd" clip-rule="evenodd" d="M15.7119 38.4245C16.1024 36.9097 21.7611 37.0294 28.3511 38.6922C34.9413 40.3556 39.9664 42.9313 39.5753 44.4462C37.7332 42.8338 33.2439 40.9636 28.0997 39.6657C22.9551 38.3669 18.1089 37.8815 15.7109 38.424L15.7119 38.4245Z" fill="url(#paint1_linear_507_2289)"/>
<path fill-rule="evenodd" clip-rule="evenodd" d="M14.2804 34.4115C14.7301 32.5696 21.655 32.6436 29.7479 34.5775C37.841 36.5112 44.036 39.5724 43.5863 41.4146V41.4143C41.7062 39.4763 36.0727 37.1379 29.5059 35.5682C22.938 33.9987 16.8465 33.5359 14.2793 34.411L14.2804 34.4115Z" fill="url(#paint2_linear_507_2289)"/>
<path fill-rule="evenodd" clip-rule="evenodd" d="M14.0738 30.427C14.4981 28.6113 21.9978 28.7777 30.8238 30.7985C39.6511 32.8196 46.4616 35.9295 46.0364 37.7449V37.7445C43.9593 35.8036 37.7753 33.4083 30.5983 31.7654C23.4194 30.1214 16.8006 29.5853 14.0723 30.4266L14.0738 30.427Z" fill="url(#paint3_linear_507_2289)"/>
<path fill-rule="evenodd" clip-rule="evenodd" d="M15.1773 26.2957C15.5298 24.7878 22.9582 25.2006 31.7694 27.2177C40.5806 29.2355 47.4367 32.0928 47.0843 33.6007V33.6005C44.1904 31.8727 38.2009 29.8354 31.5152 28.3048C24.8278 26.7735 18.5423 26.0006 15.1758 26.2951L15.1773 26.2957Z" fill="url(#paint4_linear_507_2289)"/>
<path fill-rule="evenodd" clip-rule="evenodd" d="M17.4507 22.4447C17.8178 20.9403 24.7196 21.299 32.8669 23.2456C41.0143 25.1927 47.3204 27.9902 46.953 29.4947C44.9352 27.8083 39.2372 25.6485 32.6636 24.0778C26.0884 22.5067 20.0231 21.8557 17.4492 22.4444L17.4507 22.4447Z" fill="url(#paint5_linear_507_2289)"/>
<path fill-rule="evenodd" clip-rule="evenodd" d="M21.7782 19.1251C22.0781 18.0112 27.6484 18.5098 34.2206 20.2395C40.7936 21.9688 45.8779 24.2739 45.5784 25.3882V25.3879C43.405 24.0248 38.9627 22.3636 34.0009 21.0577C29.038 19.752 24.3482 19.0103 21.7773 19.1251H21.7782Z" fill="url(#paint6_linear_507_2289)"/>
<path fill-rule="evenodd" clip-rule="evenodd" d="M28.3815 17.1634C28.583 16.4978 31.8768 16.8855 35.7384 18.0297C39.5999 19.1736 42.5672 20.6406 42.3656 21.3064C40.4333 20.4473 38.021 19.5773 35.4964 18.829C32.9708 18.0808 30.472 17.4957 28.3809 17.1631L28.3815 17.1634Z" fill="url(#paint7_linear_507_2289)"/>
<path fill-rule="evenodd" clip-rule="evenodd" d="M15.7119 38.4245C16.1024 36.9097 21.7611 37.0294 28.3511 38.6922C34.9413 40.3556 39.9664 42.9313 39.5753 44.4462C37.7332 42.8338 33.2439 40.9636 28.0997 39.6657C22.9551 38.3669 18.1089 37.8815 15.7109 38.424L15.7119 38.4245Z" fill="url(#paint8_linear_507_2289)"/>
<path fill-rule="evenodd" clip-rule="evenodd" d="M28.2797 17.1163C28.3147 17.0171 28.3986 16.9315 28.5356 16.8685C28.7083 16.789 28.9761 16.7419 29.3243 16.7304C30.612 16.688 33.0503 17.1186 35.768 17.9239C38.4856 18.729 40.762 19.695 41.8141 20.4306C42.0989 20.6297 42.2965 20.8149 42.3966 20.9752C42.4801 21.1087 42.5008 21.2312 42.4689 21.3369C42.4598 21.3669 42.4382 21.3916 42.4095 21.4047C42.3809 21.4177 42.3481 21.4179 42.3193 21.4052C40.3908 20.5477 37.9831 19.6796 35.4636 18.9326C32.9451 18.1867 30.4535 17.603 28.3676 17.2708C28.3579 17.2698 28.3483 17.2673 28.3391 17.2637L28.3384 17.2635C28.2866 17.2427 28.2587 17.1865 28.2735 17.1329C28.2751 17.1272 28.2772 17.1216 28.2797 17.1163ZM42.2317 21.1274C42.2254 21.1155 42.2183 21.1033 42.2105 21.0907C42.1212 20.9479 41.9417 20.7868 41.6883 20.6095C40.6474 19.8818 38.3939 18.9298 35.7056 18.1333C33.017 17.3367 30.6054 16.9068 29.3316 16.9489C29.0212 16.9591 28.7815 16.9961 28.6275 17.0669C28.6144 17.0729 28.602 17.0791 28.5904 17.0855C30.6456 17.4236 33.0731 17.9966 35.526 18.7233C37.9792 19.4504 40.3265 20.2922 42.2317 21.1274Z" fill="#EE7624"/>
<path fill-rule="evenodd" clip-rule="evenodd" d="M15.6104 38.3806C15.666 38.1824 15.7999 38.0076 16.0095 37.8597C16.3062 37.6503 16.7613 37.4927 17.3503 37.3917C19.5723 37.0105 23.7463 37.4169 28.3783 38.5856C33.0104 39.7547 36.8714 41.3758 38.637 42.7632C39.1053 43.1312 39.4284 43.4852 39.5875 43.8098C39.7029 44.0453 39.7346 44.2679 39.6818 44.4728C39.6722 44.5095 39.6443 44.5388 39.6079 44.55C39.5714 44.5612 39.5318 44.5527 39.5032 44.5276C37.6686 42.9219 33.1961 41.0635 28.073 39.771C22.9583 38.4797 18.14 37.9913 15.7477 38.5271C15.7201 38.5366 15.6898 38.5347 15.6635 38.5217L15.6625 38.5212C15.621 38.5006 15.5968 38.4563 15.6023 38.4104C15.6036 38.3999 15.6062 38.3899 15.6104 38.3806ZM39.4856 44.2263C39.4744 44.0788 39.4121 43.9222 39.3066 43.7577C39.1397 43.4977 38.8665 43.2218 38.5012 42.9347C36.7501 41.5588 32.9186 39.957 28.3245 38.7975C23.7305 37.6383 19.5913 37.2289 17.3876 37.607C16.9278 37.6859 16.5542 37.7986 16.2818 37.9479C16.1101 38.042 15.9799 38.1493 15.8985 38.2728C18.3723 37.8004 23.1084 38.2922 28.1269 39.5592C33.1471 40.8257 37.5444 42.6391 39.4856 44.2263Z" fill="#EE7624"/>
<path fill-rule="evenodd" clip-rule="evenodd" d="M14.1786 34.37C14.2414 34.1327 14.3996 33.9228 14.6491 33.7437C15.006 33.4876 15.5566 33.2925 16.2709 33.1633C18.9798 32.6736 24.0899 33.1142 29.7737 34.4724C35.4579 35.8306 40.2077 37.746 42.3919 39.4053C42.968 39.8428 43.368 40.2652 43.5673 40.6544C43.7101 40.9331 43.7529 41.1974 43.6933 41.4417C43.68 41.4955 43.6287 41.5309 43.5736 41.5243C43.5453 41.521 43.5206 41.507 43.5032 41.4869C41.6262 39.5575 36.0161 37.2379 29.4806 35.6758C22.95 34.1152 16.8928 33.6456 14.3282 34.5113C14.2994 34.5251 14.2659 34.5257 14.2366 34.5128L14.2355 34.5123C14.1941 34.4941 14.1681 34.4526 14.17 34.4076C14.1706 34.3944 14.1735 34.3817 14.1786 34.37ZM43.4988 41.1758C43.4875 40.9859 43.4062 40.7845 43.2651 40.573C43.055 40.2578 42.7138 39.9245 42.259 39.579C40.0893 37.9309 35.3688 36.0341 29.7226 34.6851C24.0765 33.3358 19.0011 32.8918 16.31 33.3784C15.7459 33.4804 15.2883 33.6229 14.9558 33.8084C14.7334 33.9325 14.5684 34.0746 14.4705 34.2378C17.1669 33.457 23.1237 33.9319 29.5317 35.4631C35.9409 36.9952 41.4616 39.2631 43.4988 41.1758Z" fill="#EE7624"/>
<path fill-rule="evenodd" clip-rule="evenodd" d="M13.97 30.3844C14.0308 30.15 14.1953 29.9433 14.4602 29.769C14.837 29.5211 15.4253 29.3359 16.1925 29.218C19.1071 28.7702 24.6512 29.2749 30.8467 30.6934C37.0432 32.1121 42.2478 34.0684 44.6672 35.7374C45.304 36.1767 45.7503 36.599 45.9787 36.9856C46.1437 37.2648 46.1983 37.5288 46.1416 37.7712C46.1289 37.8252 46.0775 37.8612 46.0222 37.8549C45.9955 37.8518 45.9719 37.8393 45.9548 37.821C43.8799 35.8876 37.7187 33.5093 30.5721 31.8732C23.4292 30.2375 16.8431 29.6958 14.1164 30.5284C14.0943 30.5381 14.0695 30.5403 14.0458 30.5345L14.0443 30.5341C13.9965 30.5223 13.9624 30.4802 13.961 30.4311C13.9605 30.4147 13.9638 30.3989 13.97 30.3844ZM45.9407 37.515C45.9278 37.3818 45.8758 37.242 45.7897 37.0964C45.5731 36.7299 45.1461 36.3337 44.5423 35.9171C42.1365 34.2575 36.9594 32.3172 30.7976 30.9063C24.6367 29.4958 19.1242 28.9887 16.2258 29.434C15.4982 29.5458 14.9384 29.7162 14.581 29.9513C14.4396 30.0443 14.3311 30.1469 14.2601 30.2605C17.123 29.5079 23.6058 30.0537 30.6212 31.6603C37.6377 33.2664 43.7061 35.5952 45.9407 37.515Z" fill="#EE7624"/>
<path fill-rule="evenodd" clip-rule="evenodd" d="M15.0759 26.2503C15.1297 26.0518 15.2872 25.8782 15.5485 25.7387C15.9119 25.5446 16.4871 25.4104 17.2413 25.3396C20.1081 25.07 25.6117 25.6955 31.7942 27.1109C37.9767 28.5266 43.1984 30.3567 45.6542 31.8447C46.3004 32.2361 46.7576 32.6067 46.998 32.9391C47.1769 33.1865 47.2397 33.418 47.1914 33.6252C47.1787 33.6792 47.1273 33.7153 47.0721 33.7089C47.0539 33.7068 47.0371 33.7005 47.0229 33.6908C44.1331 31.9672 38.1587 29.9374 31.4909 28.4109C24.8266 26.885 18.5627 26.1119 15.1994 26.4025C15.1783 26.4068 15.156 26.4048 15.1356 26.3964L15.1341 26.3957C15.0874 26.3764 15.06 26.3279 15.0677 26.2782C15.0692 26.2684 15.072 26.259 15.0759 26.2503ZM46.9822 33.4131C46.9648 33.3043 46.9085 33.1891 46.8202 33.0669C46.5918 32.7512 46.1541 32.4033 45.5403 32.0313C43.0963 30.5505 37.8982 28.7329 31.7451 27.3238C25.592 25.9152 20.115 25.2889 17.2619 25.557C16.5452 25.6244 15.9974 25.7468 15.6521 25.9313C15.519 26.0023 15.4175 26.0811 15.3534 26.1709C18.7693 25.9192 24.9607 26.6914 31.54 28.198C38.1197 29.7043 44.0259 31.702 46.9822 33.4131Z" fill="#EE7624"/>
<path fill-rule="evenodd" clip-rule="evenodd" d="M17.3495 22.4003C17.4043 22.2025 17.5553 22.0295 17.8019 21.8889C18.1459 21.6924 18.6858 21.5544 19.3912 21.4783C22.0668 21.1896 27.174 21.7735 32.8928 23.1399C38.6117 24.5067 43.4252 26.2933 45.6726 27.7585C46.2652 28.1449 46.6819 28.5116 46.8975 28.8419C47.0569 29.0862 47.1102 29.315 47.0598 29.5211C47.0508 29.5577 47.0235 29.5872 46.9875 29.5991C46.9514 29.6109 46.9118 29.6033 46.8828 29.579C44.8716 27.8982 39.1905 25.7502 32.6383 24.1847C26.0943 22.621 20.0577 21.9667 17.486 22.5488C17.4695 22.5543 17.4515 22.556 17.4333 22.553L17.4318 22.5528C17.38 22.5443 17.3415 22.5006 17.3399 22.4485C17.3394 22.4314 17.3428 22.4151 17.3495 22.4003ZM46.85 29.2722C46.8314 29.1734 46.7846 29.0697 46.7136 28.9611C46.51 28.6491 46.1126 28.3065 45.5526 27.9414C43.3174 26.4843 38.529 24.7116 32.8417 23.3525C27.1542 21.9936 22.0757 21.4085 19.4147 21.6955C18.7479 21.7675 18.236 21.8929 17.9109 22.0785C17.7981 22.1428 17.709 22.2135 17.647 22.2923C20.3436 21.7843 26.2749 22.4394 32.6894 23.9721C39.1045 25.505 44.6866 27.6015 46.85 29.2722Z" fill="#EE7624"/>
<path fill-rule="evenodd" clip-rule="evenodd" d="M21.6768 19.0819C21.7235 18.9286 21.8498 18.7963 22.0586 18.6947C22.3384 18.5584 22.777 18.472 23.3497 18.4384C25.5111 18.3115 29.6339 18.9191 34.2488 20.1336C38.8644 21.348 42.7476 22.8471 44.5594 24.0197C45.0398 24.3304 45.3771 24.6212 45.5513 24.877C45.6856 25.0741 45.7275 25.2565 45.6846 25.4162C45.6704 25.4693 45.6189 25.5035 45.5643 25.4963C45.5459 25.4939 45.5292 25.4871 45.515 25.477C43.3457 24.118 38.9177 22.4644 33.9732 21.1631C29.0251 19.8613 24.3494 19.12 21.7849 19.2339C21.7828 19.234 21.7806 19.2341 21.7785 19.2341H21.7776C21.718 19.2341 21.6694 19.1867 21.668 19.1273C21.6676 19.1111 21.6708 19.0958 21.6768 19.0819ZM45.4665 25.1905C45.4485 25.1301 45.4154 25.0666 45.3699 24.9998C45.207 24.7608 44.8886 24.4932 44.44 24.2029C42.6395 23.0377 38.7795 21.5517 34.1929 20.345C29.6068 19.1379 25.5104 18.5304 23.3626 18.6565C22.8273 18.688 22.4164 18.7637 22.1549 18.891C22.082 18.9265 22.0215 18.9652 21.9757 19.0086C24.5924 18.9391 29.1809 19.6763 34.0292 20.9517C38.8779 22.2279 43.2313 23.8439 45.4665 25.1905Z" fill="#EE7624"/>
<path fill-rule="evenodd" clip-rule="evenodd" d="M28.2797 17.1163C28.3147 17.0171 28.3986 16.9315 28.5356 16.8685C28.7083 16.789 28.9761 16.7419 29.3243 16.7304C30.612 16.688 33.0503 17.1186 35.768 17.9239C38.4856 18.729 40.762 19.695 41.8141 20.4306C42.0989 20.6297 42.2965 20.8149 42.3966 20.9752C42.4801 21.1087 42.5008 21.2312 42.4689 21.3369C42.4598 21.3669 42.4382 21.3916 42.4095 21.4047C42.3809 21.4177 42.3481 21.4179 42.3193 21.4052C40.3908 20.5477 37.9831 19.6796 35.4636 18.9326C32.9451 18.1867 30.4535 17.603 28.3676 17.2708C28.3579 17.2698 28.3483 17.2673 28.3391 17.2637L28.3384 17.2635C28.2866 17.2427 28.2587 17.1865 28.2735 17.1329C28.2751 17.1272 28.2772 17.1216 28.2797 17.1163ZM42.2317 21.1274C42.2254 21.1155 42.2183 21.1033 42.2105 21.0907C42.1212 20.9479 41.9417 20.7868 41.6883 20.6095C40.6474 19.8818 38.3939 18.9298 35.7056 18.1333C33.017 17.3367 30.6054 16.9068 29.3316 16.9489C29.0212 16.9591 28.7815 16.9961 28.6275 17.0669C28.6144 17.0729 28.602 17.0791 28.5904 17.0855C30.6456 17.4236 33.0731 17.9966 35.526 18.7233C37.9792 19.4504 40.3265 20.2922 42.2317 21.1274Z" fill="#EE7624"/>
<path fill-rule="evenodd" clip-rule="evenodd" d="M15.6104 38.3806C15.666 38.1824 15.7999 38.0076 16.0095 37.8597C16.3062 37.6503 16.7613 37.4927 17.3503 37.3917C19.5723 37.0105 23.7463 37.4169 28.3783 38.5856C33.0104 39.7547 36.8714 41.3758 38.637 42.7632C39.1053 43.1312 39.4284 43.4852 39.5875 43.8098C39.7029 44.0453 39.7346 44.2679 39.6818 44.4728C39.6722 44.5095 39.6443 44.5388 39.6079 44.55C39.5714 44.5612 39.5318 44.5527 39.5032 44.5276C37.6686 42.9219 33.1961 41.0635 28.073 39.771C22.9583 38.4797 18.14 37.9913 15.7477 38.5271C15.7201 38.5366 15.6898 38.5347 15.6635 38.5217L15.6625 38.5212C15.621 38.5006 15.5968 38.4563 15.6023 38.4104C15.6036 38.3999 15.6062 38.3899 15.6104 38.3806ZM39.4856 44.2263C39.4744 44.0788 39.4121 43.9222 39.3066 43.7577C39.1397 43.4977 38.8665 43.2218 38.5012 42.9347C36.7501 41.5588 32.9186 39.957 28.3245 38.7975C23.7305 37.6383 19.5913 37.2289 17.3876 37.607C16.9278 37.6859 16.5542 37.7986 16.2818 37.9479C16.1101 38.042 15.9799 38.1493 15.8985 38.2728C18.3723 37.8004 23.1084 38.2922 28.1269 39.5592C33.1471 40.8257 37.5444 42.6391 39.4856 44.2263Z" fill="#EE7624"/>
<path fill-rule="evenodd" clip-rule="evenodd" d="M7.22173 48.6713C7.22173 48.6713 6.88044 48.053 6.7225 48.1709C6.68676 48.1975 6.63919 48.2579 6.60043 48.2797C6.04684 48.5921 5.48607 48.6665 5.04813 48.6058C4.83797 48.5766 4.6239 48.4704 4.53807 48.3215C4.45288 48.1738 4.48082 47.9897 4.56186 47.7975C4.72772 47.4035 5.08261 46.9988 5.61468 46.6894C5.62714 46.6822 5.6503 46.6674 5.66276 46.6599C5.74493 46.6106 5.75488 46.6031 5.85153 46.5637C5.94503 46.5257 5.79225 45.877 5.69661 45.8848C5.50847 45.9527 5.43196 45.9935 5.34437 46.0456C5.33304 46.0523 5.32146 46.0585 5.31014 46.0651C4.61698 46.4646 4.11951 47.0123 3.90457 47.5226C3.72675 47.9452 3.73304 48.351 3.92017 48.6755C4.10668 48.9987 4.45514 49.2101 4.91158 49.2733C5.47336 49.3513 6.12549 49.3319 6.83601 48.931C7.09035 48.7875 7.1281 48.7505 7.22173 48.6713Z" fill="#FECE00"/>
<path fill-rule="evenodd" clip-rule="evenodd" d="M56.558 46.1319C56.7824 46.1912 56.8801 46.2239 57.0984 46.3299C57.6757 46.6093 58.0743 47.0065 58.2825 47.3793C58.3739 47.5428 58.4394 47.8194 58.3507 47.9384C58.2642 48.0543 58.0006 48.1853 57.8126 48.2145C57.3867 48.2807 56.9105 48.1568 56.3328 47.8773C56.2603 47.8422 56.1348 47.7391 56.0465 47.6681C55.5002 47.2297 55.5459 48.1748 55.5459 48.1748C55.6609 48.2845 55.9117 48.4499 56.0465 48.5152C56.7763 48.8682 57.4345 48.913 57.9723 48.8294C58.4272 48.7585 58.8234 48.486 58.9782 48.1728C59.1336 47.8582 59.1054 47.4676 58.882 47.0675C58.6185 46.5955 58.241 46.1629 57.4683 45.7274C57.2163 45.5854 56.9875 45.5141 56.7199 45.4434C56.5987 45.6401 56.5353 45.8649 56.558 46.1319Z" fill="#FECE00"/>
<path fill-rule="evenodd" clip-rule="evenodd" d="M30.169 5.11047C30.0978 4.87767 30.0741 4.66517 30.0741 4.42478C30.0741 3.79 30.282 3.28818 30.5288 2.93973C30.6381 2.78536 30.7712 2.68788 30.9171 2.68788C31.1068 2.68788 31.2248 2.78075 31.3466 2.92566C31.6186 3.24946 31.7351 3.7092 31.7351 4.34398C31.7351 4.56533 31.7121 4.83858 31.6741 5.04798L32.3598 5.24069C32.4054 4.99046 32.4571 4.77322 32.4571 4.50893C32.4571 3.7036 32.187 2.98878 31.8741 2.54683C31.6099 2.17399 31.2695 1.97754 30.9171 1.97754C30.5645 1.97754 30.2241 2.17411 29.9601 2.54683C29.6471 2.98878 29.3457 3.55384 29.3457 4.35904C29.3457 4.64674 29.4098 5.01499 29.4848 5.3175L30.169 5.11047Z" fill="#FECE00"/>
<path fill-rule="evenodd" clip-rule="evenodd" d="M31.6711 5.04732C29.3315 13.3085 25.872 21.3654 21.4146 28.9071C18.3482 34.0997 14.8361 39.0077 10.9433 43.5454C10.1535 44.466 9.27763 45.3118 8.52734 46.2609C7.94996 46.9912 7.6327 47.4074 6.74008 48.1508C6.73316 48.1567 6.71252 48.1773 6.7129 48.1776C6.93036 48.3078 7.09912 48.4728 7.22358 48.6716C8.26784 47.8214 8.97107 46.818 9.67404 46.0492C14.4459 40.8292 18.3941 35.4224 22.0288 29.2675C26.5173 21.6729 30.001 13.5595 32.3569 5.24028C32.1386 5.04633 31.9089 4.99553 31.6711 5.04732Z" fill="#E30C13"/>
<path fill-rule="evenodd" clip-rule="evenodd" d="M56.0471 47.67C49.8987 41.6256 44.4779 34.7135 39.9969 27.1906C35.8405 20.2181 32.5385 12.8017 30.1892 5.17503C30.1828 5.15412 30.1686 5.10967 30.1686 5.10967C29.8614 5.05776 29.6427 5.16843 29.4844 5.31683C31.8514 13.0192 35.1871 20.5128 39.384 27.5532C43.8962 35.1286 49.355 42.089 55.5465 48.1757C55.6484 47.9458 55.8059 47.7684 56.0471 47.67Z" fill="#653B8F"/>
<path fill-rule="evenodd" clip-rule="evenodd" d="M5.85243 46.5643C6.97535 46.2019 7.6378 46.1241 8.53672 45.9216C16.1856 44.1971 24.1183 43.318 32.0953 43.3207C40.3639 43.3207 48.5897 44.264 56.5054 46.1209C56.5224 46.1249 56.5566 46.1328 56.5566 46.1328C56.56 45.8812 56.6141 45.6507 56.7202 45.4416C48.7357 43.5642 40.4372 42.6104 32.0954 42.6104C24.1497 42.6077 16.2639 43.4805 8.64268 45.182C7.6563 45.4021 6.681 45.5287 5.69727 45.8841C5.80851 46.0839 5.86678 46.3077 5.85243 46.5643Z" fill="#13993C"/>
<path fill-rule="evenodd" clip-rule="evenodd" d="M14.2695 34.5273C14.0339 36.8369 20.9503 39.4193 29.7181 40.295C38.4866 41.1709 45.7848 40.0083 46.0206 37.6984V37.6987C43.6354 39.3004 37.0873 39.896 29.8327 39.1715C22.5773 38.4471 16.2817 36.5684 14.2684 34.5273H14.2695Z" fill="url(#paint9_linear_507_2289)"/>
<path fill-rule="evenodd" clip-rule="evenodd" d="M14.0427 30.3418C13.8068 32.6513 21.0254 35.264 30.1666 36.177C39.3084 37.0901 46.9091 35.9576 47.145 33.648C44.666 35.2406 37.8445 35.8088 30.2813 35.0533C22.7173 34.2981 16.1479 32.3924 14.0408 30.3418H14.0427Z" fill="url(#paint10_linear_507_2289)"/>
<path fill-rule="evenodd" clip-rule="evenodd" d="M15.6766 38.4375C15.441 40.747 21.494 43.2432 29.1979 44.0129C36.9024 44.7819 43.3376 43.5333 43.5731 41.2236V41.224C41.4555 42.8524 35.6864 43.5257 29.3127 42.8892C22.9379 42.2526 17.4217 40.452 15.6753 38.4375H15.6766Z" fill="url(#paint11_linear_507_2289)"/>
<path fill-rule="evenodd" clip-rule="evenodd" d="M18.7133 42.332C18.487 44.5476 22.9838 46.8108 28.7581 47.3877C34.5322 47.964 39.3955 46.6355 39.6212 44.42V44.4202C37.9949 46.0228 33.6451 46.7869 28.8677 46.31C24.0903 45.8328 19.9819 44.2235 18.712 42.332H18.7133Z" fill="url(#paint12_linear_507_2289)"/>
<path fill-rule="evenodd" clip-rule="evenodd" d="M15.1583 26.4014C14.9625 28.3183 21.9239 30.5833 30.7081 31.4607C39.4923 32.3378 46.7709 31.495 46.9666 29.5781C44.1607 30.717 37.7895 31.0054 30.8256 30.3101C23.8602 29.6148 17.6756 28.0717 15.1571 26.4014H15.1583Z" fill="url(#paint13_linear_507_2289)"/>
<path fill-rule="evenodd" clip-rule="evenodd" d="M17.4895 22.584C17.326 24.1863 23.4762 26.1134 31.2283 26.8876C38.9799 27.6617 45.3959 26.99 45.559 25.3874V25.3876C42.8728 26.2516 37.3367 26.4202 31.3369 25.8212C25.3359 25.2218 19.9458 23.962 17.4886 22.584H17.4895Z" fill="url(#paint14_linear_507_2289)"/>
<path fill-rule="evenodd" clip-rule="evenodd" d="M21.7618 19.208C21.6498 20.308 26.1748 21.6607 31.8695 22.2295C37.5637 22.7979 42.2702 22.3677 42.3825 21.2675C39.7898 21.6119 35.9709 21.5797 31.9763 21.1811C27.9808 20.7821 24.2319 20.0582 21.7612 19.208H21.7618Z" fill="url(#paint15_linear_507_2289)"/>
<path fill-rule="evenodd" clip-rule="evenodd" d="M28.3881 17.1328C28.3287 17.7146 30.1346 18.371 32.4222 18.5992C34.7094 18.8278 36.6115 18.5417 36.6709 17.9599C35.3081 17.9124 33.9125 17.8178 32.516 17.6783C31.1191 17.539 29.7326 17.3557 28.3881 17.1331V17.1328Z" fill="url(#paint16_linear_507_2289)"/>
<path fill-rule="evenodd" clip-rule="evenodd" d="M14.1611 34.5336C14.1602 34.5177 14.163 34.5014 14.1694 34.486C14.1865 34.4455 14.2264 34.4189 14.2706 34.4189H14.2717C14.3027 34.4189 14.3323 34.432 14.3531 34.455C14.3549 34.457 14.3565 34.459 14.3582 34.4611C15.1575 35.266 16.6307 36.0419 18.5665 36.7332C21.5042 37.7822 25.5027 38.63 29.8459 39.0637C34.1885 39.4974 38.2775 39.4575 41.3679 39.0105C43.4076 38.7155 45.01 38.2454 45.9552 37.6132C45.9754 37.5976 46.0009 37.5887 46.0283 37.5901C46.0867 37.5931 46.1324 37.6411 46.1324 37.6993V37.6996C46.1324 37.7033 46.1323 37.7067 46.1319 37.7104L46.1317 37.7131L46.1315 37.7138C46.0926 38.0838 45.8883 38.4287 45.5311 38.7405C45.189 39.0392 44.7041 39.3096 44.0945 39.5462C41.3056 40.6289 35.8691 41.0199 29.7093 40.4046C23.5501 39.7895 18.3022 38.3313 15.7883 36.7189C15.2388 36.3666 14.8183 36.0058 14.5433 35.6454C14.2595 35.2736 14.1286 34.8997 14.1611 34.5336ZM14.3856 34.7888C14.4187 35.0288 14.5328 35.2707 14.7178 35.5131C14.9801 35.8568 15.3828 36.199 15.907 36.5352C18.403 38.136 23.6156 39.5763 29.7312 40.1872C35.8473 40.7981 41.2458 40.4176 44.0149 39.3425C44.5963 39.1168 45.0602 38.861 45.3865 38.5761C45.617 38.375 45.7777 38.1604 45.8586 37.9316C44.8752 38.5087 43.3303 38.9475 41.3994 39.2268C38.2948 39.6758 34.1868 39.7168 29.824 39.2811C25.4606 38.8455 21.4438 37.9928 18.4925 36.9389C16.6574 36.2837 15.2326 35.5483 14.3856 34.7888Z" fill="#FDE314"/>
<path fill-rule="evenodd" clip-rule="evenodd" d="M13.9339 30.3525C13.9323 30.3355 13.9347 30.3181 13.9415 30.3015C13.9584 30.2603 13.9985 30.2334 14.0431 30.2334H14.0449C14.0759 30.2334 14.1055 30.2465 14.1264 30.2695C14.1285 30.2719 14.1305 30.2742 14.1324 30.2768C14.9699 31.0849 16.5082 31.8671 18.5274 32.5664C21.5942 33.6283 25.7657 34.4933 30.2945 34.9455C34.8227 35.3978 39.0846 35.3751 42.3038 34.9409C44.4341 34.6536 46.1056 34.1881 47.0878 33.557C47.1232 33.5344 47.1686 33.5338 47.2045 33.5558C47.2405 33.5777 47.2606 33.6182 47.2563 33.66C47.2258 33.9595 47.0827 34.242 46.8338 34.5033C46.4793 34.8753 45.9045 35.207 45.1418 35.4888C42.2408 36.5599 36.5782 36.9279 30.1578 36.2866C23.738 35.6455 18.264 34.1651 15.6382 32.542C14.9476 32.1151 14.4516 31.6762 14.1795 31.2416C13.9927 30.9434 13.9092 30.6455 13.9339 30.3525ZM14.1593 30.5977C14.1939 30.8393 14.3143 31.083 14.5092 31.3278C14.7842 31.673 15.2056 32.0175 15.7538 32.3562C18.3623 33.9687 23.802 35.4323 30.1797 36.0693C36.5578 36.7063 42.1836 36.3479 45.0655 35.2839C45.6711 35.0601 46.1538 34.8061 46.4931 34.5222C46.734 34.3205 46.9013 34.1051 46.984 33.8746C45.9628 34.4509 44.3508 34.8854 42.3331 35.1575C39.1002 35.5935 34.8202 35.6172 30.2726 35.1629C25.7246 34.7088 21.5353 33.8393 18.4555 32.7728C16.5347 32.1076 15.0437 31.3636 14.1593 30.5977Z" fill="#FDE314"/>
<path fill-rule="evenodd" clip-rule="evenodd" d="M15.568 38.4433C15.5671 38.426 15.5702 38.4083 15.5778 38.392C15.5957 38.3531 15.6345 38.3281 15.6775 38.3281H15.6787C15.7097 38.3281 15.7392 38.3412 15.7601 38.3642C15.7638 38.3682 15.7671 38.3726 15.7701 38.3771C16.4625 39.1691 17.7465 39.9243 19.4366 40.5897C22.0067 41.6015 25.5123 42.3996 29.3258 42.7804C33.1387 43.1611 36.7346 43.0723 39.4572 42.5893C41.252 42.2709 42.6652 41.7831 43.5027 41.1417C43.5234 41.1234 43.5511 41.1129 43.5808 41.1143C43.6392 41.1173 43.6849 41.1654 43.6849 41.2235V41.2239C43.6849 41.2275 43.6848 41.231 43.6844 41.2346L43.6843 41.2365L43.684 41.2376C43.6089 41.9593 42.9654 42.5934 41.8678 43.0894C39.3986 44.2053 34.6065 44.6623 29.1891 44.1215C23.7722 43.5804 19.169 42.1848 16.9752 40.6033C16.006 39.9047 15.5038 39.1611 15.568 38.4433ZM15.7907 38.7188C15.8603 39.2927 16.3298 39.8684 17.1037 40.4262C19.278 41.9938 23.8426 43.3678 29.211 43.9042C34.58 44.44 39.3301 43.9963 41.7772 42.8905C42.6484 42.4967 43.2249 42.0252 43.4089 41.4765C42.5342 42.0554 41.1801 42.5055 39.4956 42.8044C36.7567 43.2904 33.1395 43.3808 29.3039 42.9978C25.4676 42.6147 21.9415 41.8109 19.3561 40.793C17.7665 40.1672 16.5311 39.4586 15.7907 38.7188Z" fill="#FDE314"/>
<path fill-rule="evenodd" clip-rule="evenodd" d="M18.6046 42.3371C18.6035 42.3174 18.6078 42.2975 18.6173 42.2794C18.6365 42.244 18.6736 42.2217 18.7141 42.2217H18.7154C18.7463 42.2217 18.7759 42.2348 18.7968 42.2578C18.8036 42.2653 18.8093 42.2736 18.8135 42.2824C19.3152 43.0219 20.26 43.7141 21.5091 44.3125C23.4157 45.2258 26.0285 45.9153 28.8808 46.2003C31.733 46.485 34.4321 46.326 36.4845 45.8081C37.8343 45.4675 38.9028 44.9737 39.5427 44.3449C39.5641 44.3218 39.5952 44.3081 39.6289 44.3098C39.6873 44.3127 39.733 44.3607 39.733 44.4189V44.4192C39.733 44.4233 39.7327 44.4275 39.7322 44.4316C39.638 45.3488 38.7886 46.1319 37.406 46.688C35.3902 47.4987 32.2347 47.8433 28.7493 47.4954C25.2636 47.1472 22.2414 46.1857 20.43 44.9927C19.1943 44.179 18.5209 43.2495 18.6046 42.3371ZM18.8264 42.664C18.9101 43.4092 19.5389 44.1439 20.5508 44.8105C22.3405 45.9889 25.3277 46.9339 28.7712 47.278C32.2146 47.6216 35.3324 47.2863 37.3239 46.4854C38.4505 46.0322 39.2154 45.4363 39.4477 44.7223C38.7743 45.2688 37.7712 45.7089 36.5384 46.02C34.4654 46.543 31.7395 46.7052 28.8589 46.4176C25.9782 46.1299 23.3398 45.4318 21.4141 44.5094C20.2697 43.9612 19.3758 43.3321 18.8264 42.664Z" fill="#FDE314"/>
<path fill-rule="evenodd" clip-rule="evenodd" d="M15.0498 26.4092C15.0491 26.3964 15.0504 26.3835 15.0543 26.3707C15.0683 26.3246 15.111 26.293 15.1593 26.293H15.1606C15.1864 26.293 15.2111 26.3021 15.2307 26.3184C17.7477 27.9804 23.9058 29.5103 30.8388 30.2023C37.78 30.8953 44.1307 30.6129 46.9274 29.4778C46.9631 29.4634 47.0036 29.4686 47.0345 29.4915C47.0653 29.5145 47.0818 29.5519 47.0779 29.5901C47.052 29.8443 46.9167 30.0835 46.6759 30.3023C46.3402 30.6074 45.7924 30.8767 45.0632 31.1012C42.2945 31.9538 36.867 32.1862 30.6993 31.5703C24.5318 30.9543 19.2607 29.6533 16.7202 28.2705C16.051 27.9062 15.5687 27.534 15.3014 27.1688C15.1142 26.9128 15.0295 26.6579 15.0498 26.4092ZM15.2777 26.6081C15.3036 26.7506 15.3722 26.8946 15.4787 27.04C15.7316 27.3859 16.1917 27.7339 16.8252 28.0787C19.3505 29.4532 24.5909 30.7405 30.7212 31.3529C36.8516 31.965 42.2464 31.7398 44.9985 30.8924C45.6891 30.6798 46.2103 30.4298 46.5281 30.1409C46.6618 30.0192 46.7584 29.8916 46.8125 29.7569C43.9047 30.8356 37.6449 31.1014 30.8169 30.4197C23.9887 29.7381 17.9098 28.2396 15.2777 26.6081Z" fill="#FDE314"/>
<path fill-rule="evenodd" clip-rule="evenodd" d="M17.3812 22.5883C17.3809 22.5777 17.382 22.5669 17.3848 22.5562C17.3975 22.5081 17.441 22.4746 17.4909 22.4746H17.4917C17.5138 22.4746 17.5352 22.4812 17.553 22.4934C20.0059 23.865 25.3745 25.1156 31.3501 25.7125C37.3263 26.309 42.8409 26.1451 45.5212 25.2856C45.5353 25.28 45.5506 25.2774 45.5668 25.2781C45.6251 25.2811 45.6708 25.3291 45.6708 25.3873V25.3876C45.6708 25.3925 45.6706 25.3975 45.6698 25.4024C45.6467 25.618 45.5271 25.821 45.3125 26.0058C45.0171 26.2604 44.5336 26.4843 43.8894 26.6694C41.4507 27.3701 36.6636 27.5399 31.2196 26.9962C25.7754 26.4526 21.1192 25.3394 18.8714 24.1707C18.2774 23.8618 17.8489 23.5468 17.6107 23.239C17.4408 23.0194 17.3641 22.8007 17.3812 22.5883ZM17.6138 22.7754C17.6399 22.8842 17.6981 22.9941 17.7843 23.1055C18.0083 23.3948 18.4144 23.6867 18.9728 23.977C21.2059 25.1381 25.8328 26.2387 31.2415 26.7789C36.6498 27.3189 41.4059 27.1556 43.8286 26.4594C44.4343 26.2854 44.8912 26.0797 45.1692 25.8405C45.2761 25.7483 45.3553 25.6521 45.4029 25.5506C42.6424 26.3658 37.2072 26.5168 31.3282 25.9298C25.4485 25.3426 20.1543 24.1201 17.6138 22.7754Z" fill="#FDE314"/>
<path fill-rule="evenodd" clip-rule="evenodd" d="M21.6538 19.2093C21.6536 19.2026 21.6541 19.1958 21.6553 19.1889C21.6641 19.1362 21.7098 19.0977 21.7634 19.0977H21.764C21.7784 19.0977 21.7923 19.1005 21.8053 19.1057C24.2698 19.9529 28.007 20.6736 31.9895 21.0713C35.9742 21.469 39.7838 21.5017 42.3702 21.1581C42.4034 21.1536 42.4369 21.1647 42.4609 21.188C42.4851 21.2113 42.4972 21.2442 42.4938 21.2775C42.4777 21.4351 42.3875 21.5841 42.2208 21.7181C42.0029 21.8932 41.6455 22.0472 41.1685 22.1725C39.3801 22.6425 35.8635 22.7368 31.8607 22.3372C27.8577 21.9374 24.4308 21.1495 22.7732 20.3352C22.3309 20.118 22.0118 19.8965 21.8335 19.6818C21.7011 19.5222 21.6422 19.3628 21.6538 19.2093ZM21.8946 19.3669C21.9164 19.4247 21.9532 19.4831 22.0025 19.5425C22.1666 19.74 22.4633 19.9393 22.8701 20.1391C24.5139 20.9466 27.9131 21.7233 31.8826 22.1198C35.8518 22.5159 39.3391 22.4273 41.1126 21.9612C41.5516 21.8458 41.8826 21.7092 42.0832 21.5479C42.1436 21.4995 42.1914 21.4495 42.2244 21.3971C39.6302 21.7184 35.883 21.6795 31.9676 21.2887C28.0513 20.8977 24.3713 20.1945 21.8946 19.3669Z" fill="#FDE314"/>
<path fill-rule="evenodd" clip-rule="evenodd" d="M28.4132 17.0273C29.7533 17.249 31.1352 17.4316 32.5273 17.5706C33.9214 17.7097 35.3146 17.8041 36.675 17.8517C36.7053 17.8527 36.7339 17.8662 36.7539 17.889C36.7738 17.9118 36.7834 17.9418 36.7803 17.9719C36.7709 18.064 36.7286 18.1517 36.6525 18.2321C36.5571 18.3329 36.4033 18.4246 36.1979 18.501C35.4646 18.7739 34.0338 18.871 32.4116 18.7088C30.7891 18.5469 29.4066 18.1689 28.7432 17.7566C28.5573 17.641 28.4252 17.5208 28.3521 17.4031C28.2937 17.3091 28.2699 17.2149 28.2794 17.1226C28.2853 17.0648 28.3357 17.0217 28.394 17.0245C28.4007 17.0249 28.4071 17.0258 28.4132 17.0273ZM28.5264 17.2673C28.5377 17.2885 28.5521 17.3098 28.569 17.3312C28.6331 17.4121 28.7318 17.4919 28.8592 17.5712C29.5053 17.9727 30.8534 18.3338 32.4335 18.4914C34.0133 18.6493 35.4071 18.562 36.1213 18.2963C36.2622 18.2438 36.3752 18.185 36.4543 18.1184C36.4753 18.1008 36.4937 18.0828 36.5091 18.0643C35.1943 18.015 33.8503 17.9223 32.5054 17.7879C31.16 17.6538 29.8241 17.4788 28.5264 17.2673Z" fill="#FDE314"/>
<defs>
<linearGradient id="paint0_linear_507_2289" x1="17.4499" y1="24.6759" x2="44.2404" y2="33.6569" gradientUnits="userSpaceOnUse">
<stop stop-color="#EE7624"/>
<stop offset="1" stop-color="#F4982C"/>
</linearGradient>
<linearGradient id="paint1_linear_507_2289" x1="17.4502" y1="24.676" x2="44.2407" y2="33.657" gradientUnits="userSpaceOnUse">
<stop stop-color="#EE7624"/>
<stop offset="1" stop-color="#F4982C"/>
</linearGradient>
<linearGradient id="paint2_linear_507_2289" x1="17.4495" y1="24.6747" x2="44.2399" y2="33.6558" gradientUnits="userSpaceOnUse">
<stop stop-color="#EE7624"/>
<stop offset="1" stop-color="#F4982C"/>
</linearGradient>
<linearGradient id="paint3_linear_507_2289" x1="17.4501" y1="24.6748" x2="44.2405" y2="33.6558" gradientUnits="userSpaceOnUse">
<stop stop-color="#EE7624"/>
<stop offset="1" stop-color="#F4982C"/>
</linearGradient>
<linearGradient id="paint4_linear_507_2289" x1="17.4487" y1="24.6757" x2="44.2391" y2="33.6568" gradientUnits="userSpaceOnUse">
<stop stop-color="#EE7624"/>
<stop offset="1" stop-color="#F4982C"/>
</linearGradient>
<linearGradient id="paint5_linear_507_2289" x1="17.4492" y1="24.675" x2="44.2397" y2="33.6561" gradientUnits="userSpaceOnUse">
<stop stop-color="#EE7624"/>
<stop offset="1" stop-color="#F4982C"/>
</linearGradient>
<linearGradient id="paint6_linear_507_2289" x1="17.448" y1="24.6752" x2="44.2385" y2="33.6563" gradientUnits="userSpaceOnUse">
<stop stop-color="#EE7624"/>
<stop offset="1" stop-color="#F4982C"/>
</linearGradient>
<linearGradient id="paint7_linear_507_2289" x1="17.4499" y1="24.6759" x2="44.2404" y2="33.6569" gradientUnits="userSpaceOnUse">
<stop stop-color="#EE7624"/>
<stop offset="1" stop-color="#F4982C"/>
</linearGradient>
<linearGradient id="paint8_linear_507_2289" x1="17.4502" y1="24.676" x2="44.2407" y2="33.657" gradientUnits="userSpaceOnUse">
<stop stop-color="#EE7624"/>
<stop offset="1" stop-color="#F4982C"/>
</linearGradient>
<linearGradient id="paint9_linear_507_2289" x1="43.7213" y1="35.6367" x2="16.2636" y2="31.1595" gradientUnits="userSpaceOnUse">
<stop stop-color="#FAE900"/>
<stop offset="1" stop-color="#F0972D"/>
</linearGradient>
<linearGradient id="paint10_linear_507_2289" x1="43.7218" y1="35.6363" x2="16.2641" y2="31.159" gradientUnits="userSpaceOnUse">
<stop stop-color="#FAE900"/>
<stop offset="1" stop-color="#F0972D"/>
</linearGradient>
<linearGradient id="paint11_linear_507_2289" x1="43.7214" y1="35.6371" x2="16.2637" y2="31.1599" gradientUnits="userSpaceOnUse">
<stop stop-color="#FAE900"/>
<stop offset="1" stop-color="#F0972D"/>
</linearGradient>
<linearGradient id="paint12_linear_507_2289" x1="43.7205" y1="35.6373" x2="16.2628" y2="31.1601" gradientUnits="userSpaceOnUse">
<stop stop-color="#FAE900"/>
<stop offset="1" stop-color="#F0972D"/>
</linearGradient>
<linearGradient id="paint13_linear_507_2289" x1="43.7209" y1="35.6362" x2="16.2632" y2="31.159" gradientUnits="userSpaceOnUse">
<stop stop-color="#FAE900"/>
<stop offset="1" stop-color="#F0972D"/>
</linearGradient>
<linearGradient id="paint14_linear_507_2289" x1="43.7205" y1="35.6367" x2="16.2628" y2="31.1595" gradientUnits="userSpaceOnUse">
<stop stop-color="#FAE900"/>
<stop offset="1" stop-color="#F0972D"/>
</linearGradient>
<linearGradient id="paint15_linear_507_2289" x1="43.7225" y1="35.6372" x2="16.2648" y2="31.1599" gradientUnits="userSpaceOnUse">
<stop stop-color="#FAE900"/>
<stop offset="1" stop-color="#F0972D"/>
</linearGradient>
<linearGradient id="paint16_linear_507_2289" x1="43.7215" y1="35.6362" x2="16.2638" y2="31.159" gradientUnits="userSpaceOnUse">
<stop stop-color="#FAE900"/>
<stop offset="1" stop-color="#F0972D"/>
</linearGradient>
</defs>
</svg>
